<svg xmlns="http://www.w3.org/2000/svg" width="80" height="80" viewBox="0 0 80 80"><circle cx="40" cy="40" r="40" transform="translate(0)" fill="#262627"/><circle cx="30.769" cy="30.769" r="30.769" transform="translate(9.232 9.233)" fill="#17181c"/><path d="M104.332,13.174A8.37,8.37,0,0,1,87.717,15.22a8.192,8.192,0,0,1,7.34-9.389A8.109,8.109,0,0,1,104.332,13.174Z" transform="translate(-62.026 -4.077)" fill="#00eafa" fill-rule="evenodd"/><path d="M102.942,31.59c.786,0,1.561.029,2.338.088a8.383,8.383,0,0,1-16.34,3.277,30.659,30.659,0,0,1,14.008-3.365Zm8.769,60.269a30.982,30.982,0,0,1-14.908.649L91.325,48.152a1.771,1.771,0,0,1,1.538-1.967L104.129,44.8a1.754,1.754,0,0,1,1.966,1.513l0,.013Z" transform="translate(-62.942 -22.356)" fill="#00eafa" fill-rule="evenodd"/></svg>