<?xml version="1.0" encoding="UTF-8" standalone="no"?>
<svg
   viewBox="0 0 300 100"
   version="1.1"
   id="svg40"
   sodipodi:docname="pyt_27_logo.svg"
   width="300"
   height="100"
   inkscape:version="1.1 (c68e22c387, 2021-05-23)"
   xmlns:inkscape="http://www.inkscape.org/namespaces/inkscape"
   xmlns:sodipodi="http://sodipodi.sourceforge.net/DTD/sodipodi-0.dtd"
   xmlns="http://www.w3.org/2000/svg"
   xmlns:svg="http://www.w3.org/2000/svg">
  <sodipodi:namedview
     id="namedview42"
     pagecolor="#ffffff"
     bordercolor="#666666"
     borderopacity="1.0"
     inkscape:pageshadow="2"
     inkscape:pageopacity="0.0"
     inkscape:pagecheckerboard="0"
     showgrid="false"
     inkscape:zoom="1.219014"
     inkscape:cx="244.04969"
     inkscape:cy="57.01329"
     inkscape:window-width="1600"
     inkscape:window-height="837"
     inkscape:window-x="-8"
     inkscape:window-y="-8"
     inkscape:window-maximized="1"
     inkscape:current-layer="svg40" />
  <defs
     id="defs4">
    <style
       id="style2">.cls-1{fill:#fff;}.cls-1,.cls-5,.cls-6{fill-rule:evenodd;}.cls-2,.cls-4,.cls-7,.cls-8{fill:none;stroke-miterlimit:22.93;}.cls-2,.cls-7{stroke:#fff;}.cls-2,.cls-4{stroke-width:0.57px;}.cls-3,.cls-5{fill:#231f20;}.cls-4,.cls-8{stroke:#231f20;}.cls-6{fill:#221f20;}.cls-7,.cls-8{stroke-width:0.22px;}</style>
  </defs>
  <g
     id="Capa_2"
     data-name="Capa 2"
     transform="matrix(0.64090072,0,0,0.64090072,0.93516291,0)">
    <g
       id="Capa_1-2"
       data-name="Capa 1">
      <path
         class="cls-1"
         d="m 391.53,41.68 a 188.46,188.46 0 0 0 -11,17.45 5.77,5.77 0 0 1 -6.28,2.93 11.33,11.33 0 0 1 -4.88,-2.14 10.64,10.64 0 0 1 -3.59,-4.33 7,7 0 0 1 -0.16,-5.79 l 0.08,-0.17 0.1,-0.16 c 4.33,-7.41 9.1,-14.57 14.09,-21.54 4.65,-6.49 9.48,-12.93 14.64,-19 l 0.67,-0.79 a 3.67,3.67 0 0 1 0.44,-0.52 l 0.2,-0.24 h 0.07 A 7.66,7.66 0 0 1 398,6 a 11.15,11.15 0 0 1 10.49,0.75 6.23,6.23 0 0 1 3.15,5.61 c -0.57,8.07 -1.26,16.14 -2,24.2 q -1.12,13 -2.21,25.93 c -0.65,7.77 -0.89,15.62 -1,23.41 a 197.4,197.4 0 0 0 1.1,24.67 5.82,5.82 0 0 1 -3.36,6 11.53,11.53 0 0 1 -5.2,1.16 10.45,10.45 0 0 1 -5.46,-1.41 6.83,6.83 0 0 1 -3.49,-4.62 v -0.18 -0.2 c -0.76,-8.57 -1,-17.21 -1,-25.81 0,-8 0.22,-16.11 0.89,-24.1 q 0.78,-9.87 1.62,-19.73 z M 362,110.53 a 5.81,5.81 0 0 1 -3.36,6 11.49,11.49 0 0 1 -5.19,1.16 10.43,10.43 0 0 1 -5.45,-1.39 6.88,6.88 0 0 1 -3.5,-4.61 v -0.19 -0.2 c -0.76,-8.57 -1,-17.21 -1,-25.81 0,-8 0.23,-16.11 0.89,-24.1 q 0.82,-9.86 1.67,-19.71 a 188.46,188.46 0 0 0 -11,17.45 5.76,5.76 0 0 1 -6.27,2.93 11.28,11.28 0 0 1 -4.88,-2.14 10.56,10.56 0 0 1 -3.59,-4.33 A 6.93,6.93 0 0 1 320,49.8 l 0.08,-0.17 0.09,-0.16 c 4.33,-7.41 9.1,-14.57 14.1,-21.54 4.65,-6.49 9.47,-12.93 14.63,-19 l 0.67,-0.79 A 5.73,5.73 0 0 1 350,7.6 l 0.2,-0.24 h 0.07 A 7.71,7.71 0 0 1 352.39,6 11.13,11.13 0 0 1 362.87,6.75 6.23,6.23 0 0 1 366,12.32 c -0.56,8.07 -1.26,16.14 -1.95,24.2 q -1.12,13 -2.21,25.93 c -0.65,7.77 -0.9,15.62 -1,23.41 A 197.39,197.39 0 0 0 362,110.53 Z M 304.32,19.37 a 6,6 0 0 1 3.06,5.13 6.26,6.26 0 0 1 -3,5.19 8.93,8.93 0 0 1 -9.94,0 6.26,6.26 0 0 1 -3,-5.19 6.25,6.25 0 0 1 3,-5.2 8.71,8.71 0 0 1 5,-1.51 8.06,8.06 0 0 1 4.88,1.58 z M 294.09,44 a 6.22,6.22 0 0 1 3.11,-5.26 9.19,9.19 0 0 1 4.93,-1.34 8.38,8.38 0 0 1 5.12,1.6 6.34,6.34 0 0 1 2.7,5.09 v 0.16 c -0.51,12.76 -0.66,25.61 -0.06,38.37 a 201,201 0 0 0 3.2,29.16 6,6 0 0 1 -2,5.69 8.3,8.3 0 0 1 -4.94,2.07 9.29,9.29 0 0 1 -5.11,-0.94 6.59,6.59 0 0 1 -3.65,-4.7 A 222.51,222.51 0 0 1 294,83 c -0.56,-13 -0.43,-26.06 0.09,-39 z m -73.67,40.65 c 0.53,-1.21 1.07,-2.41 1.62,-3.61 a 78.63,78.63 0 0 1 8.16,-14.33 v 0 0 a 30.45,30.45 0 0 1 5.23,-5.23 l 0.12,-0.09 0.12,-0.08 a 14.06,14.06 0 0 1 10.76,-2 14.73,14.73 0 0 1 7.42,4.35 38.34,38.34 0 0 1 4.34,5.55 82.53,82.53 0 0 1 5.84,10.62 c 2.45,-13.08 7.08,-26.18 12.08,-38.11 a 7,7 0 0 1 4.18,-3.79 9.42,9.42 0 0 1 5.07,-0.39 7.66,7.66 0 0 1 4.67,2.72 5.9,5.9 0 0 1 0.88,6.06 c -5.84,14 -11.38,30.13 -12.55,45.32 v 0.14 a 36.81,36.81 0 0 0 0,7.64 c 0.28,3.06 0.65,6.41 0.66,9.48 a 8.64,8.64 0 0 1 0.19,1.24 6.38,6.38 0 0 1 -0.67,4.13 8.36,8.36 0 0 1 -6.34,4.28 h -0.11 -0.12 a 10.36,10.36 0 0 1 -9.61,-3.66 l -0.07,-0.08 -0.06,-0.08 a 18.1,18.1 0 0 1 -1.4,-2.57 37.86,37.86 0 0 1 -1.69,-3.66 c -0.89,-2.09 -1.72,-4.21 -2.54,-6.33 l -6,-14.1 a 78.81,78.81 0 0 0 -6.29,-12.35 c -0.3,-0.45 -0.62,-0.92 -1,-1.39 A 57,57 0 0 0 236.73,86 v 0.08 a 201.75,201.75 0 0 0 -9,23.18 l -0.09,0.26 v 0 c -0.05,0.22 -0.1,0.48 -0.13,0.7 v 0.35 l -0.08,0.41 c -0.81,3.86 -3.68,6.18 -7.46,7 a 8.68,8.68 0 0 1 -8.23,-2.31 9.88,9.88 0 0 1 -1.45,-2 l -0.26,-0.43 -0.14,-0.49 c -0.19,-0.64 -0.4,-1.29 -0.61,-1.93 l -0.06,-0.18 v -0.18 c -0.47,-2.08 -0.8,-4.26 -1.12,-6.37 -0.81,-4.62 -1.57,-9.36 -2.53,-13.94 -0.96,-4.58 -2,-9.31 -2.91,-14 -1.12,-5.65 -2.33,-11.33 -3.8,-16.91 -1.15,-4.39 -2.5,-8.73 -4.06,-13 a 6,6 0 0 1 1.05,-6.1 7.9,7.9 0 0 1 4.72,-2.52 9.16,9.16 0 0 1 5.13,0.44 6.92,6.92 0 0 1 4,3.74 v 0.09 a 134.45,134.45 0 0 1 4.64,14.15 C 215.83,62 217.1,68 218.27,74 c 0.73,3.48 1.34,7.14 2.15,10.65 z M 177.09,59 v -1 l 0.06,-0.33 a 9,9 0 0 1 1.59,-4 v 0 l 0.05,-0.06 a 8,8 0 0 1 2.37,-2 A 8.9,8.9 0 0 1 179.83,51 C 174.05,47.87 168.07,48.87 162.34,51.66 154.43,55.54 148,62 142.9,69.07 c -4.77,6.6 -8.86,14.38 -9.76,22.58 -0.5,4.68 0,9.53 4.61,11.82 a 10.56,10.56 0 0 0 10.58,-0.19 c 5.07,-2.83 9.38,-8.33 12.49,-13.12 a 161.17,161.17 0 0 0 10.24,-18.8 c 1.49,-3.15 3,-6.3 4.53,-9.43 C 176,61.16 176.52,60 177.09,59 Z M 189,50.66 a 7.88,7.88 0 0 1 3.8,2.34 4.91,4.91 0 0 1 1.51,2.57 6.57,6.57 0 0 1 0.41,1.52 21.21,21.21 0 0 1 0.16,3.29 c 0.13,3.56 0.34,7.13 0.63,10.68 0.22,2.7 0.33,5.43 0.44,8.14 0.11,2.71 0.43,5.75 0.82,8.57 v 0.16 c 0.75,7.42 1.78,15.58 3.92,22.74 v 0.17 0.17 a 6.1,6.1 0 0 1 -1.72,5.58 8.13,8.13 0 0 1 -4.83,2.28 9.27,9.27 0 0 1 -5.12,-0.69 7.16,7.16 0 0 1 -3.86,-4.06 l -0.06,-0.17 -0.05,-0.18 A 168.85,168.85 0 0 1 181,89 v 0 l -0.17,-2.35 c -1.9,3.51 -3.92,7 -6.1,10.22 -4.53,6.79 -10.28,13.39 -17.44,17.48 a 28.35,28.35 0 0 1 -27.82,0.85 c -9.91,-4.87 -13.26,-14 -12.11,-24.68 1.13,-10.44 6,-20.12 12.11,-28.52 6.63,-9.14 14.89,-16.82 25.07,-21.85 11.21,-5.53 22.82,-6.45 34,-0.36 a 6.75,6.75 0 0 1 3.46,4.45 5.94,5.94 0 0 1 -2.27,5.89 7.4,7.4 0 0 1 -0.73,0.53 z M 43.78,104 a 92.24,92.24 0 0 0 15.69,-1.74 77,77 0 0 0 16.69,-5.83 c 8.58,-4 20.12,-10.57 24.35,-19.55 a 25.06,25.06 0 0 0 0.54,-18.59 C 98.41,50.99 93.22,44.87 87.49,39.89 A 85.1,85.1 0 0 0 63.56,26.11 81.9,81.9 0 0 0 39.72,20.73 c -0.06,4.6 -0.18,9.21 -0.3,13.8 -0.16,6.48 -0.32,13 -0.32,19.46 0,5.7 0.19,11.43 0.42,17.13 0.27,6.35 0.78,12.71 1.68,19 0.67,4.66 1.53,9.3 2.58,13.88 z m -0.12,13.42 a 8.43,8.43 0 0 1 -4,1.87 h -0.23 -0.24 a 10,10 0 0 1 -5,-0.79 7.18,7.18 0 0 1 -3.79,-3.74 l -0.09,-0.21 -0.06,-0.21 A 157.69,157.69 0 0 1 25.08,87.5 c -0.88,-8 -1.64,-16.12 -1.73,-24.12 -0.11,-9.15 0,-18.35 0.21,-27.5 0.14,-8 0.32,-16.07 0.32,-24.09 a 6.27,6.27 0 0 1 3,-5.19 8.71,8.71 0 0 1 5,-1.51 8.53,8.53 0 0 1 5.94,2.1 101.51,101.51 0 0 1 32.14,6.49 96.36,96.36 0 0 1 28.78,16.77 c 7.57,6.47 14.05,14.3 17.47,23.75 3.3,9.11 2.74,18.39 -0.91,27.32 v 0.09 l -0.05,0.09 c -5.81,12.42 -19.34,20.87 -31.31,26.49 a 94.07,94.07 0 0 1 -20.16,6.94 116.63,116.63 0 0 1 -20.12,2.29 z"
         id="path6" />
      <path
         class="cls-2"
         d="m 391.53,41.68 a 188.46,188.46 0 0 0 -11,17.45 5.77,5.77 0 0 1 -6.28,2.93 11.33,11.33 0 0 1 -4.88,-2.14 10.64,10.64 0 0 1 -3.59,-4.33 7,7 0 0 1 -0.16,-5.79 l 0.08,-0.17 0.1,-0.16 c 4.33,-7.41 9.1,-14.57 14.09,-21.54 4.65,-6.49 9.48,-12.93 14.64,-19 l 0.67,-0.79 a 3.67,3.67 0 0 1 0.44,-0.52 l 0.2,-0.24 h 0.07 A 7.66,7.66 0 0 1 398,6 a 11.15,11.15 0 0 1 10.49,0.75 6.23,6.23 0 0 1 3.15,5.61 c -0.57,8.07 -1.26,16.14 -2,24.2 q -1.12,13 -2.21,25.93 c -0.65,7.77 -0.89,15.62 -1,23.41 a 197.4,197.4 0 0 0 1.1,24.67 5.82,5.82 0 0 1 -3.36,6 11.53,11.53 0 0 1 -5.2,1.16 10.45,10.45 0 0 1 -5.46,-1.41 6.83,6.83 0 0 1 -3.49,-4.62 v -0.18 -0.2 c -0.76,-8.57 -1,-17.21 -1,-25.81 0,-8 0.22,-16.11 0.89,-24.1 q 0.78,-9.87 1.62,-19.73 z M 362,110.53 a 5.81,5.81 0 0 1 -3.36,6 11.49,11.49 0 0 1 -5.19,1.16 10.43,10.43 0 0 1 -5.45,-1.39 6.88,6.88 0 0 1 -3.5,-4.61 v -0.19 -0.2 c -0.76,-8.57 -1,-17.21 -1,-25.81 0,-8 0.23,-16.11 0.89,-24.1 q 0.82,-9.86 1.67,-19.71 a 188.46,188.46 0 0 0 -11,17.45 5.76,5.76 0 0 1 -6.27,2.93 11.28,11.28 0 0 1 -4.88,-2.14 10.56,10.56 0 0 1 -3.59,-4.33 A 6.93,6.93 0 0 1 320,49.8 l 0.08,-0.17 0.09,-0.16 c 4.33,-7.41 9.1,-14.57 14.1,-21.54 4.65,-6.49 9.47,-12.93 14.63,-19 l 0.67,-0.79 A 5.73,5.73 0 0 1 350,7.6 l 0.2,-0.24 h 0.07 A 7.71,7.71 0 0 1 352.39,6 11.13,11.13 0 0 1 362.87,6.75 6.23,6.23 0 0 1 366,12.32 c -0.56,8.07 -1.26,16.14 -1.95,24.2 q -1.12,13 -2.21,25.93 c -0.65,7.77 -0.9,15.62 -1,23.41 A 197.39,197.39 0 0 0 362,110.53 Z M 304.32,19.37 a 6,6 0 0 1 3.06,5.13 6.26,6.26 0 0 1 -3,5.19 8.93,8.93 0 0 1 -9.94,0 6.26,6.26 0 0 1 -3,-5.19 6.25,6.25 0 0 1 3,-5.2 8.71,8.71 0 0 1 5,-1.51 8.06,8.06 0 0 1 4.88,1.58 z M 294.09,44 a 6.22,6.22 0 0 1 3.11,-5.26 9.19,9.19 0 0 1 4.93,-1.34 8.38,8.38 0 0 1 5.12,1.6 6.34,6.34 0 0 1 2.7,5.09 v 0.16 c -0.51,12.76 -0.66,25.61 -0.06,38.37 a 201,201 0 0 0 3.2,29.16 6,6 0 0 1 -2,5.69 8.3,8.3 0 0 1 -4.94,2.07 9.29,9.29 0 0 1 -5.11,-0.94 6.59,6.59 0 0 1 -3.65,-4.7 A 222.51,222.51 0 0 1 294,83 c -0.56,-13 -0.43,-26.06 0.09,-39 z m -73.67,40.65 c 0.53,-1.21 1.07,-2.41 1.62,-3.61 a 78.63,78.63 0 0 1 8.16,-14.33 v 0 0 a 30.45,30.45 0 0 1 5.23,-5.23 l 0.12,-0.09 0.12,-0.08 a 14.06,14.06 0 0 1 10.76,-2 14.73,14.73 0 0 1 7.42,4.35 38.34,38.34 0 0 1 4.34,5.55 82.53,82.53 0 0 1 5.84,10.62 c 2.45,-13.08 7.08,-26.18 12.08,-38.11 a 7,7 0 0 1 4.18,-3.79 9.42,9.42 0 0 1 5.07,-0.39 7.66,7.66 0 0 1 4.67,2.72 5.9,5.9 0 0 1 0.88,6.06 c -5.84,14 -11.38,30.13 -12.55,45.32 v 0.14 a 36.81,36.81 0 0 0 0,7.64 c 0.28,3.06 0.65,6.41 0.66,9.48 a 8.64,8.64 0 0 1 0.19,1.24 6.38,6.38 0 0 1 -0.67,4.13 8.36,8.36 0 0 1 -6.34,4.28 h -0.11 -0.12 a 10.36,10.36 0 0 1 -9.61,-3.66 l -0.07,-0.08 -0.06,-0.08 a 18.1,18.1 0 0 1 -1.4,-2.57 37.86,37.86 0 0 1 -1.69,-3.66 c -0.89,-2.09 -1.72,-4.21 -2.54,-6.33 l -6,-14.1 a 78.81,78.81 0 0 0 -6.29,-12.35 c -0.3,-0.45 -0.62,-0.92 -1,-1.39 A 57,57 0 0 0 236.73,86 v 0.08 a 201.75,201.75 0 0 0 -9,23.18 l -0.09,0.26 v 0 c -0.05,0.22 -0.1,0.48 -0.13,0.7 v 0.35 l -0.08,0.41 c -0.81,3.86 -3.68,6.18 -7.46,7 a 8.68,8.68 0 0 1 -8.23,-2.31 9.88,9.88 0 0 1 -1.45,-2 l -0.26,-0.43 -0.14,-0.49 c -0.19,-0.64 -0.4,-1.29 -0.61,-1.93 l -0.06,-0.18 v -0.18 c -0.47,-2.08 -0.8,-4.26 -1.12,-6.37 -0.81,-4.62 -1.57,-9.36 -2.53,-13.94 -0.96,-4.58 -2,-9.31 -2.91,-14 -1.12,-5.65 -2.33,-11.33 -3.8,-16.91 -1.15,-4.39 -2.5,-8.73 -4.06,-13 a 6,6 0 0 1 1.05,-6.1 7.9,7.9 0 0 1 4.72,-2.52 9.16,9.16 0 0 1 5.13,0.44 6.92,6.92 0 0 1 4,3.74 v 0.09 a 134.45,134.45 0 0 1 4.64,14.15 C 215.83,62 217.1,68 218.27,74 c 0.73,3.48 1.34,7.14 2.15,10.65 z M 177.09,59 v -1 l 0.06,-0.33 a 9,9 0 0 1 1.59,-4 v 0 l 0.05,-0.06 a 8,8 0 0 1 2.37,-2 A 8.9,8.9 0 0 1 179.83,51 C 174.05,47.87 168.07,48.87 162.34,51.66 154.43,55.54 148,62 142.9,69.07 c -4.77,6.6 -8.86,14.38 -9.76,22.58 -0.5,4.68 0,9.53 4.61,11.82 a 10.56,10.56 0 0 0 10.58,-0.19 c 5.07,-2.83 9.38,-8.33 12.49,-13.12 a 161.17,161.17 0 0 0 10.24,-18.8 c 1.49,-3.15 3,-6.3 4.53,-9.43 C 176,61.16 176.52,60 177.09,59 Z M 189,50.66 a 7.88,7.88 0 0 1 3.8,2.34 4.91,4.91 0 0 1 1.51,2.57 6.57,6.57 0 0 1 0.41,1.52 21.21,21.21 0 0 1 0.16,3.29 c 0.13,3.56 0.34,7.13 0.63,10.68 0.22,2.7 0.33,5.43 0.44,8.14 0.11,2.71 0.43,5.75 0.82,8.57 v 0.16 c 0.75,7.42 1.78,15.58 3.92,22.74 v 0.17 0.17 a 6.1,6.1 0 0 1 -1.72,5.58 8.13,8.13 0 0 1 -4.83,2.28 9.27,9.27 0 0 1 -5.12,-0.69 7.16,7.16 0 0 1 -3.86,-4.06 l -0.06,-0.17 -0.05,-0.18 A 168.85,168.85 0 0 1 181,89 v 0 l -0.17,-2.35 c -1.9,3.51 -3.92,7 -6.1,10.22 -4.53,6.79 -10.28,13.39 -17.44,17.48 a 28.35,28.35 0 0 1 -27.82,0.85 c -9.91,-4.87 -13.26,-14 -12.11,-24.68 1.13,-10.44 6,-20.12 12.11,-28.52 6.63,-9.14 14.89,-16.82 25.07,-21.85 11.21,-5.53 22.82,-6.45 34,-0.36 a 6.75,6.75 0 0 1 3.46,4.45 5.94,5.94 0 0 1 -2.27,5.89 7.4,7.4 0 0 1 -0.73,0.53 z M 43.78,104 a 92.24,92.24 0 0 0 15.69,-1.74 77,77 0 0 0 16.69,-5.83 c 8.58,-4 20.12,-10.57 24.35,-19.55 a 25.06,25.06 0 0 0 0.54,-18.59 C 98.41,50.99 93.22,44.87 87.49,39.89 A 85.1,85.1 0 0 0 63.56,26.11 81.9,81.9 0 0 0 39.72,20.73 c -0.06,4.6 -0.18,9.21 -0.3,13.8 -0.16,6.48 -0.32,13 -0.32,19.46 0,5.7 0.19,11.43 0.42,17.13 0.27,6.35 0.78,12.71 1.68,19 0.67,4.66 1.53,9.3 2.58,13.88 z m -0.12,13.42 a 8.43,8.43 0 0 1 -4,1.87 h -0.23 -0.24 a 10,10 0 0 1 -5,-0.79 7.18,7.18 0 0 1 -3.79,-3.74 l -0.09,-0.21 -0.06,-0.21 A 157.69,157.69 0 0 1 25.08,87.5 c -0.88,-8 -1.64,-16.12 -1.73,-24.12 -0.11,-9.15 0,-18.35 0.21,-27.5 0.14,-8 0.32,-16.07 0.32,-24.09 a 6.27,6.27 0 0 1 3,-5.19 8.71,8.71 0 0 1 5,-1.51 8.53,8.53 0 0 1 5.94,2.1 101.51,101.51 0 0 1 32.14,6.49 96.36,96.36 0 0 1 28.78,16.77 c 7.57,6.47 14.05,14.3 17.47,23.75 3.3,9.11 2.74,18.39 -0.91,27.32 v 0.09 l -0.05,0.09 c -5.81,12.42 -19.34,20.87 -31.31,26.49 a 94.07,94.07 0 0 1 -20.16,6.94 116.63,116.63 0 0 1 -20.12,2.29 z"
         id="path8" />
      <path
         class="cls-3"
         d="m 302,22.74 a 2.08,2.08 0 0 1 1.29,1.76 2.25,2.25 0 0 1 -1.18,1.82 4.89,4.89 0 0 1 -5.36,0 2.25,2.25 0 0 1 -1.18,-1.82 2.26,2.26 0 0 1 1.18,-1.83 4.62,4.62 0 0 1 2.68,-0.8 3.94,3.94 0 0 1 2.57,0.87 z m 3.86,21.32 q -1.71,43.22 3.21,68.47 a 2,2 0 0 1 -0.75,1.9 4.31,4.31 0 0 1 -2.57,1 5.15,5.15 0 0 1 -2.89,-0.51 2.55,2.55 0 0 1 -1.5,-1.83 q -4.94,-26.13 -3.22,-69 a 2.19,2.19 0 0 1 1.18,-1.9 5.18,5.18 0 0 1 2.79,-0.73 4.39,4.39 0 0 1 2.68,0.8 2.31,2.31 0 0 1 1.09,1.8 z M 205.79,43.47 a 134.56,134.56 0 0 1 4.5,13.73 q 1.92,7.15 4,17.59 2.08,10.44 2.9,13.65 c 0.42,2 1.07,5.45 1.92,10.51 q 3.43,-9.2 6.65,-16.2 a 76.21,76.21 0 0 1 7.71,-13.58 26,26 0 0 1 4.5,-4.53 10,10 0 0 1 7.72,-1.46 10.62,10.62 0 0 1 5.31,3.22 34.2,34.2 0 0 1 3.86,5 95,95 0 0 1 7.14,13.39 q 1.94,4.38 4.5,11.1 c 0,-1.66 0.07,-3.31 0.22,-5 Q 268.38,70.77 280,43.18 a 2.91,2.91 0 0 1 1.82,-1.53 5.35,5.35 0 0 1 2.89,-0.22 3.59,3.59 0 0 1 2.25,1.24 1.85,1.85 0 0 1 0.33,2 q -11.36,27.17 -12.86,46.57 a 41.23,41.23 0 0 0 0,8.47 q 0.64,7 0.64,9.2 v 0.44 a 4.15,4.15 0 0 1 0.22,1.17 2.38,2.38 0 0 1 -0.22,1.75 4.31,4.31 0 0 1 -3.43,2.19 6.32,6.32 0 0 1 -6,-2.19 c -0.14,-0.2 -0.5,-0.88 -1.07,-2 a 101,101 0 0 1 -4.07,-9.63 l -6,-14.16 a 86,86 0 0 0 -6.64,-13 24,24 0 0 0 -3.22,-4.08 8.78,8.78 0 0 0 -1.07,-0.88 h -0.21 a 13.61,13.61 0 0 0 -3,3.21 A 60.71,60.71 0 0 0 233,84.35 209.94,209.94 0 0 0 223.81,108 c -0.14,0.1 -0.22,0.34 -0.22,0.73 a 8.38,8.38 0 0 0 -0.21,1.46 c -0.43,2 -1.86,3.31 -4.29,3.8 a 4.58,4.58 0 0 1 -4.5,-1.17 5.91,5.91 0 0 1 -0.85,-1.17 c -0.15,-0.48 -0.36,-1.16 -0.65,-2 q -0.42,-1.9 -1.07,-6.13 -2.15,-12.12 -2.57,-14.16 -0.85,-3.66 -2.89,-13.87 -2.04,-10.21 -3.86,-17.2 -1.81,-6.93 -4.18,-13.36 a 2,2 0 0 1 0.32,-2 4,4 0 0 1 2.36,-1.17 5.23,5.23 0 0 1 2.89,0.22 2.9,2.9 0 0 1 1.72,1.49 z m -24,4 q -9.44,-5.12 -21.21,0.58 -11.58,5.7 -21,18.69 -9.22,12.84 -10.5,24.52 -1.29,12 6.85,15.92 a 14.56,14.56 0 0 0 14.36,-0.29 q 7.06,-3.95 13.93,-14.46 a 173.3,173.3 0 0 0 10.5,-19.27 q 5.77,-12.26 6.43,-13 V 58.37 A 4.91,4.91 0 0 1 182,56.18 c 1,-1.27 2.65,-1.85 4.93,-1.76 a 4.09,4.09 0 0 1 3,1.46 1,1 0 0 1 0.43,0.88 2.26,2.26 0 0 1 0.32,1 21.22,21.22 0 0 1 0.11,2.7 c 0.14,4 0.36,7.64 0.64,11 0.14,1.85 0.29,4.52 0.43,8 0.29,3.89 0.57,6.86 0.86,8.9 q 1.5,14.89 4.07,23.51 a 2,2 0 0 1 -0.64,1.9 4.14,4.14 0 0 1 -2.47,1.09 5.13,5.13 0 0 1 -2.89,-0.36 3.1,3.1 0 0 1 -1.72,-1.75 A 171.21,171.21 0 0 1 185,88.59 l -0.64,-8.91 c -0.29,-3.8 -0.5,-6.47 -0.64,-8 v -0.29 l -1.5,3.36 A 164.7,164.7 0 0 1 171.29,94.6 q -7.71,11.54 -16.07,16.21 -11.58,6.72 -24,0.73 -11.36,-5.7 -9.86,-20.59 1.5,-12.84 11.36,-26.57 10.29,-14 23.57,-20.58 16.29,-8 30.21,-0.44 a 2.72,2.72 0 0 1 1.5,1.75 1.9,1.9 0 0 1 -0.85,1.9 4.77,4.77 0 0 1 -2.58,1 4.63,4.63 0 0 1 -2.76,-0.59 z M 35.67,11.21 a 98.09,98.09 0 0 1 32.78,6.28 92.85,92.85 0 0 1 27.65,16.06 q 12,10.22 16.28,22 4.28,11.78 -0.85,24.45 -6.43,13.7 -29.36,24.5 a 91.61,91.61 0 0 1 -19.29,6.64 114.65,114.65 0 0 1 -21.21,2.26 3.54,3.54 0 0 1 -2.79,1.9 5.81,5.81 0 0 1 -3,-0.44 3.11,3.11 0 0 1 -1.71,-1.6 152.5,152.5 0 0 1 -5,-26.21 Q 27.56,72.53 27.46,63.33 27.36,54.13 27.63,36 28,17.78 28,11.79 A 2.25,2.25 0 0 1 29.13,10 4.62,4.62 0 0 1 31.81,9.2 c 2,-0.03 3.29,0.65 3.86,2.01 z m 4.93,96.94 a 103.69,103.69 0 0 0 19.71,-1.9 78.93,78.93 0 0 0 17.57,-6.13 q 20.79,-9.63 26.36,-21.61 a 29,29 0 0 0 0.64,-21.6 Q 101,46.25 90.1,36.76 A 88.92,88.92 0 0 0 65,22.31 85.41,85.41 0 0 0 35.64,16.47 q 0,5.25 -0.32,18 Q 35,47.22 35,54 q 0,6.85 0.42,17.3 a 193.33,193.33 0 0 0 1.75,19.4 168.81,168.81 0 0 0 3.43,17.45 z"
         id="path10" />
      <path
         class="cls-4"
         d="m 302,22.74 a 2.08,2.08 0 0 1 1.29,1.76 2.25,2.25 0 0 1 -1.18,1.82 4.89,4.89 0 0 1 -5.36,0 2.25,2.25 0 0 1 -1.18,-1.82 2.26,2.26 0 0 1 1.18,-1.83 4.62,4.62 0 0 1 2.68,-0.8 3.94,3.94 0 0 1 2.57,0.87 z m 3.86,21.32 q -1.71,43.22 3.21,68.47 a 2,2 0 0 1 -0.75,1.9 4.31,4.31 0 0 1 -2.57,1 5.15,5.15 0 0 1 -2.89,-0.51 2.55,2.55 0 0 1 -1.5,-1.83 q -4.94,-26.13 -3.22,-69 a 2.19,2.19 0 0 1 1.18,-1.9 5.18,5.18 0 0 1 2.79,-0.73 4.39,4.39 0 0 1 2.68,0.8 2.31,2.31 0 0 1 1.09,1.8 z M 205.79,43.47 a 134.56,134.56 0 0 1 4.5,13.73 q 1.92,7.15 4,17.59 2.08,10.44 2.9,13.65 c 0.42,2 1.07,5.45 1.92,10.51 q 3.43,-9.2 6.65,-16.2 a 76.21,76.21 0 0 1 7.71,-13.58 26,26 0 0 1 4.5,-4.53 10,10 0 0 1 7.72,-1.46 10.62,10.62 0 0 1 5.31,3.22 34.2,34.2 0 0 1 3.86,5 95,95 0 0 1 7.14,13.39 q 1.94,4.38 4.5,11.1 c 0,-1.66 0.07,-3.31 0.22,-5 Q 268.38,70.77 280,43.18 a 2.91,2.91 0 0 1 1.82,-1.53 5.35,5.35 0 0 1 2.89,-0.22 3.59,3.59 0 0 1 2.25,1.24 1.85,1.85 0 0 1 0.33,2 q -11.36,27.17 -12.86,46.57 a 41.23,41.23 0 0 0 0,8.47 q 0.64,7 0.64,9.2 v 0.44 a 4.15,4.15 0 0 1 0.22,1.17 2.38,2.38 0 0 1 -0.22,1.75 4.31,4.31 0 0 1 -3.43,2.19 6.32,6.32 0 0 1 -6,-2.19 c -0.14,-0.2 -0.5,-0.88 -1.07,-2 a 101,101 0 0 1 -4.07,-9.63 l -6,-14.16 a 86,86 0 0 0 -6.64,-13 24,24 0 0 0 -3.22,-4.08 8.78,8.78 0 0 0 -1.07,-0.88 h -0.21 a 13.61,13.61 0 0 0 -3,3.21 A 60.71,60.71 0 0 0 233,84.35 209.94,209.94 0 0 0 223.81,108 c -0.14,0.1 -0.22,0.34 -0.22,0.73 a 8.38,8.38 0 0 0 -0.21,1.46 c -0.43,2 -1.86,3.31 -4.29,3.8 a 4.58,4.58 0 0 1 -4.5,-1.17 5.91,5.91 0 0 1 -0.85,-1.17 c -0.15,-0.48 -0.36,-1.16 -0.65,-2 q -0.42,-1.9 -1.07,-6.13 -2.15,-12.12 -2.57,-14.16 -0.85,-3.66 -2.89,-13.87 -2.04,-10.21 -3.86,-17.2 -1.81,-6.93 -4.18,-13.36 a 2,2 0 0 1 0.32,-2 4,4 0 0 1 2.36,-1.17 5.23,5.23 0 0 1 2.89,0.22 2.9,2.9 0 0 1 1.72,1.49 z m -24,4 q -9.44,-5.12 -21.21,0.58 -11.58,5.7 -21,18.69 -9.22,12.84 -10.5,24.52 -1.29,12 6.85,15.92 a 14.56,14.56 0 0 0 14.36,-0.29 q 7.06,-3.95 13.93,-14.46 a 173.3,173.3 0 0 0 10.5,-19.27 q 5.77,-12.26 6.43,-13 V 58.37 A 4.91,4.91 0 0 1 182,56.18 c 1,-1.27 2.65,-1.85 4.93,-1.76 a 4.09,4.09 0 0 1 3,1.46 1,1 0 0 1 0.43,0.88 2.26,2.26 0 0 1 0.32,1 21.22,21.22 0 0 1 0.11,2.7 c 0.14,4 0.36,7.64 0.64,11 0.14,1.85 0.29,4.52 0.43,8 0.29,3.89 0.57,6.86 0.86,8.9 q 1.5,14.89 4.07,23.51 a 2,2 0 0 1 -0.64,1.9 4.14,4.14 0 0 1 -2.47,1.09 5.13,5.13 0 0 1 -2.89,-0.36 3.1,3.1 0 0 1 -1.72,-1.75 A 171.21,171.21 0 0 1 185,88.59 l -0.64,-8.91 c -0.29,-3.8 -0.5,-6.47 -0.64,-8 v -0.29 l -1.5,3.36 A 164.7,164.7 0 0 1 171.29,94.6 q -7.71,11.54 -16.07,16.21 -11.58,6.72 -24,0.73 -11.36,-5.7 -9.86,-20.59 1.5,-12.84 11.36,-26.57 10.29,-14 23.57,-20.58 16.29,-8 30.21,-0.44 a 2.72,2.72 0 0 1 1.5,1.75 1.9,1.9 0 0 1 -0.85,1.9 4.77,4.77 0 0 1 -2.58,1 4.63,4.63 0 0 1 -2.76,-0.59 z M 35.67,11.21 a 98.09,98.09 0 0 1 32.78,6.28 92.85,92.85 0 0 1 27.65,16.06 q 12,10.22 16.28,22 4.28,11.78 -0.85,24.45 -6.43,13.7 -29.36,24.5 a 91.61,91.61 0 0 1 -19.29,6.64 114.65,114.65 0 0 1 -21.21,2.26 3.54,3.54 0 0 1 -2.79,1.9 5.81,5.81 0 0 1 -3,-0.44 3.11,3.11 0 0 1 -1.71,-1.6 152.5,152.5 0 0 1 -5,-26.21 Q 27.56,72.53 27.46,63.33 27.36,54.13 27.63,36 28,17.78 28,11.79 A 2.25,2.25 0 0 1 29.13,10 4.62,4.62 0 0 1 31.81,9.2 c 2,-0.03 3.29,0.65 3.86,2.01 z m 4.93,96.94 a 103.69,103.69 0 0 0 19.71,-1.9 78.93,78.93 0 0 0 17.57,-6.13 q 20.79,-9.63 26.36,-21.61 a 29,29 0 0 0 0.64,-21.6 Q 101,46.25 90.1,36.76 A 88.92,88.92 0 0 0 65,22.31 85.41,85.41 0 0 0 35.64,16.47 q 0,5.25 -0.32,18 Q 35,47.22 35,54 q 0,6.85 0.42,17.3 a 193.33,193.33 0 0 0 1.75,19.4 168.81,168.81 0 0 0 3.43,17.45 z"
         id="path12" />
      <path
         class="cls-5"
         d="m 362,12 q -0.57,8.12 -1.95,24.13 -1.38,16.01 -2.25,25.98 -0.84,9.93 -1,23.7 a 202.68,202.68 0 0 0 1.12,25.19 1.75,1.75 0 0 1 -1.18,1.88 7.23,7.23 0 0 1 -3.34,0.71 6.4,6.4 0 0 1 -3.37,-0.82 2.94,2.94 0 0 1 -1.57,-1.87 q -1,-11.59 -1,-25.44 0,-13.85 0.87,-23.77 0.82,-9.93 2.23,-26.16 0.36,-4.22 0.67,-7.87 -3,3.9 -6.27,8.37 a 201.23,201.23 0 0 0 -13.65,21.14 1.75,1.75 0 0 1 -2.05,0.83 7.22,7.22 0 0 1 -3.11,-1.41 6.62,6.62 0 0 1 -2.24,-2.59 3,3 0 0 1 -0.2,-2.45 q 5.85,-10 13.89,-21.22 8.04,-11.22 14.4,-18.79 l 0.73,-0.86 v 0 a 3.13,3.13 0 0 1 1.33,-1 6.67,6.67 0 0 1 3.33,-0.56 6.6,6.6 0 0 1 3.22,1 c 0.96,0.6 1.39,1.24 1.39,1.88 z"
         id="path14" />
      <path
         class="cls-4"
         d="m 362,12 q -0.57,8.12 -1.95,24.13 -1.38,16.01 -2.25,25.98 -0.84,9.93 -1,23.7 a 202.68,202.68 0 0 0 1.12,25.19 1.75,1.75 0 0 1 -1.18,1.88 7.23,7.23 0 0 1 -3.34,0.71 6.4,6.4 0 0 1 -3.37,-0.82 2.94,2.94 0 0 1 -1.57,-1.87 q -1,-11.59 -1,-25.44 0,-13.85 0.87,-23.77 0.82,-9.93 2.23,-26.16 0.36,-4.22 0.67,-7.87 -3,3.9 -6.27,8.37 a 201.23,201.23 0 0 0 -13.65,21.14 1.75,1.75 0 0 1 -2.05,0.83 7.22,7.22 0 0 1 -3.11,-1.41 6.62,6.62 0 0 1 -2.24,-2.59 3,3 0 0 1 -0.2,-2.45 q 5.85,-10 13.89,-21.22 8.04,-11.22 14.4,-18.79 l 0.73,-0.86 v 0 a 3.13,3.13 0 0 1 1.33,-1 6.67,6.67 0 0 1 3.33,-0.56 6.6,6.6 0 0 1 3.22,1 c 0.96,0.6 1.39,1.24 1.39,1.88 z"
         id="path16" />
      <path
         class="cls-5"
         d="m 407.53,12 q -0.57,8.12 -2,24.13 -1.43,16.01 -2.21,25.94 -0.83,9.93 -1,23.7 a 202.79,202.79 0 0 0 1.16,25.23 1.75,1.75 0 0 1 -1.18,1.88 7.2,7.2 0 0 1 -3.34,0.71 6.39,6.39 0 0 1 -3.36,-0.82 3,3 0 0 1 -1.58,-1.87 q -1,-11.59 -1,-25.44 0,-13.85 0.88,-23.77 0.82,-9.93 2.22,-26.16 0.38,-4.22 0.67,-7.87 -3,3.9 -6.27,8.37 a 201.23,201.23 0 0 0 -13.65,21.14 1.73,1.73 0 0 1 -2,0.83 7.3,7.3 0 0 1 -3.12,-1.41 6.52,6.52 0 0 1 -2.27,-2.59 3,3 0 0 1 -0.21,-2.45 q 5.87,-10 13.89,-21.22 8.02,-11.22 14.44,-18.79 l 0.73,-0.86 v 0 a 3.07,3.07 0 0 1 1.33,-1 6.67,6.67 0 0 1 3.34,-0.59 6.56,6.56 0 0 1 3.21,1 c 0.93,0.63 1.36,1.27 1.32,1.91 z"
         id="path18" />
      <path
         class="cls-4"
         d="m 407.53,12 q -0.57,8.12 -2,24.13 -1.43,16.01 -2.21,25.94 -0.83,9.93 -1,23.7 a 202.79,202.79 0 0 0 1.16,25.23 1.75,1.75 0 0 1 -1.18,1.88 7.2,7.2 0 0 1 -3.34,0.71 6.39,6.39 0 0 1 -3.36,-0.82 3,3 0 0 1 -1.58,-1.87 q -1,-11.59 -1,-25.44 0,-13.85 0.88,-23.77 0.82,-9.93 2.22,-26.16 0.38,-4.22 0.67,-7.87 -3,3.9 -6.27,8.37 a 201.23,201.23 0 0 0 -13.65,21.14 1.73,1.73 0 0 1 -2,0.83 7.3,7.3 0 0 1 -3.12,-1.41 6.52,6.52 0 0 1 -2.27,-2.59 3,3 0 0 1 -0.21,-2.45 q 5.87,-10 13.89,-21.22 8.02,-11.22 14.44,-18.79 l 0.73,-0.86 v 0 a 3.07,3.07 0 0 1 1.33,-1 6.67,6.67 0 0 1 3.34,-0.59 6.56,6.56 0 0 1 3.21,1 c 0.93,0.63 1.36,1.27 1.32,1.91 z"
         id="path20" />
      <path
         class="cls-1"
         d="m 381.36,136.59 a 5.51,5.51 0 0 0 -1.05,1.55 9.52,9.52 0 0 0 -0.92,3.71 5.16,5.16 0 0 0 0.54,2.82 1,1 0 0 0 1.06,0.44 2.3,2.3 0 0 0 1.66,-1.08 v 0 a 5.33,5.33 0 0 0 1.1,-3 4.87,4.87 0 0 0 -0.7,-3.1 3.42,3.42 0 0 0 -1.72,-1.28 m -72.05,0 a 5.7,5.7 0 0 0 -1,1.55 9.35,9.35 0 0 0 -0.92,3.71 5.07,5.07 0 0 0 0.53,2.82 1,1 0 0 0 1.07,0.44 2.3,2.3 0 0 0 1.64,-1.17 v 0 a 5.33,5.33 0 0 0 1.1,-3 4.75,4.75 0 0 0 -0.7,-3.1 3.38,3.38 0 0 0 -1.69,-1.31 z M 98,142.16 v 0.77 l 0.23,-0.15 a 8.27,8.27 0 0 0 1.58,-1.49 11.81,11.81 0 0 0 1.52,-2.2 c 0.27,-0.52 1,-2 0.65,-2.66 h -0.18 c -0.79,0 -1.61,1.12 -2,1.7 a 17.08,17.08 0 0 0 -1.8,4.03 z m -43.68,0 v 0.77 l 0.23,-0.15 a 8.32,8.32 0 0 0 1.59,-1.49 12.26,12.26 0 0 0 1.51,-2.2 c 0.27,-0.52 1,-2 0.65,-2.66 h -0.17 c -0.79,0 -1.62,1.12 -2,1.7 a 17.3,17.3 0 0 0 -1.83,4.03 z m 392.16,-5.57 a 5.73,5.73 0 0 0 -1,1.55 9.52,9.52 0 0 0 -0.92,3.71 5.16,5.16 0 0 0 0.54,2.82 1,1 0 0 0 1.07,0.44 2.3,2.3 0 0 0 1.65,-1.08 v 0 a 5.33,5.33 0 0 0 1.1,-3 4.81,4.81 0 0 0 -0.7,-3.1 3.38,3.38 0 0 0 -1.76,-1.34 z M 13.92,139.2 c 0,-1.28 0,-2.57 0,-3.84 h -0.29 a 2.9,2.9 0 0 1 -2,-0.48 2.79,2.79 0 0 1 -1.22,-2 v -0.15 -0.1 L 10.14,131 a 3.94,3.94 0 0 0 -0.32,-0.76 1.54,1.54 0 0 0 -0.43,-0.52 v 0 0 A 1.07,1.07 0 0 0 8.76,129.53 2.71,2.71 0 0 0 7.48,129.8 H 7.42 a 3,3 0 0 0 -1.09,0.73 0.88,0.88 0 0 0 -0.24,0.39 3.25,3.25 0 0 0 0.91,1.88 30.47,30.47 0 0 0 3.54,3.26 37.19,37.19 0 0 1 3.38,3.14 z m 59.91,-7.08 a 6.65,6.65 0 0 1 3.64,-1.62 5.37,5.37 0 0 1 3.27,0.59 4.64,4.64 0 0 1 2.11,2.46 v 0 a 6.54,6.54 0 0 1 -0.57,5.15 8.1,8.1 0 0 1 -4,3.84 7.74,7.74 0 0 1 -2.39,0.62 4,4 0 0 0 0.58,1.55 1.24,1.24 0 0 0 1.42,0.5 3,3 0 0 0 1.44,-0.65 6.54,6.54 0 0 0 1.49,-1.7 l 0.05,-0.07 v -0.07 a 2.92,2.92 0 0 1 1.63,-1.1 3,3 0 0 1 2,0.2 2.76,2.76 0 0 1 1.5,1.72 2.8,2.8 0 0 1 -0.14,2.07 l -0.07,0.15 -0.09,0.14 a 14,14 0 0 1 -2.79,3.1 8.43,8.43 0 0 1 -4.18,1.85 7,7 0 0 1 -7,-3 10.71,10.71 0 0 1 -1.64,-6.6 c 0,-0.16 0,-0.33 0,-0.49 a 2.78,2.78 0 0 1 0.2,-2.27 2.9,2.9 0 0 1 0.19,-0.29 13,13 0 0 1 0.51,-1.72 8,8 0 0 0 -2.8,4 22.3,22.3 0 0 0 -1.07,7.11 v 0.56 a 2.17,2.17 0 0 1 -0.19,0.9 2.64,2.64 0 0 1 -0.47,0.81 l -0.06,0.08 v 0 a 2.84,2.84 0 0 1 -2,0.9 2.88,2.88 0 0 1 -2.3,-0.84 l -0.08,-0.09 v 0 a 2.69,2.69 0 0 1 -0.51,-0.9 2.48,2.48 0 0 1 -0.16,-0.86 v -0.73 a 3,3 0 0 1 0,-0.42 v -1.21 c 0,-0.61 0,-1.21 0,-1.82 a 11.06,11.06 0 0 1 -0.81,1 13.79,13.79 0 0 1 -2.68,2.44 13.55,13.55 0 0 1 -3.53,1.66 v 4.15 a 2.76,2.76 0 0 1 -0.94,2.06 2.87,2.87 0 0 1 -3.87,0 2.76,2.76 0 0 1 -0.94,-2.06 v -2.4 h -0.36 a 2.85,2.85 0 0 1 -2,-0.82 2.8,2.8 0 0 1 -0.84,-2 c 0,-0.59 0,-1.17 0.09,-1.75 0.09,-0.58 0.09,-1.16 0.12,-1.73 a 41.21,41.21 0 0 0 0,-4.16 12.84,12.84 0 0 0 -0.5,-3.37 c 0,-0.1 -0.11,-0.29 -0.19,-0.46 -1.27,0.45 -1.72,2.08 -1.93,3.27 -0.08,0.51 -0.13,1 -0.17,1.56 V 142 c 0,1 -0.06,2.08 -0.1,3.12 v 0.05 c 0,0.39 0,0.78 0,1.17 v 0.54 l -0.08,0.21 a 2.45,2.45 0 0 1 -0.37,0.9 3,3 0 0 1 -0.54,0.63 l -0.07,0.06 -0.08,0.06 a 2.85,2.85 0 0 1 -1.95,0.57 2.73,2.73 0 0 1 -1.73,-0.73 2.77,2.77 0 0 1 -0.63,-0.78 l -0.29,-0.52 v -0.37 a 1.87,1.87 0 0 1 0,-0.4 v 0 a 3,3 0 0 1 0,-0.41 c 0,-0.33 0,-0.65 0,-0.95 0,-1.29 0,-2.58 0.1,-3.87 0,-0.75 -0.08,-1.51 -0.18,-2.25 -0.1,0.48 -0.18,1 -0.24,1.41 a 41.92,41.92 0 0 0 -0.26,6.53 V 147 a 3.23,3.23 0 0 1 0,0.53 v 0.8 l -0.1,0.32 a 2.81,2.81 0 0 1 -2.35,2 h -0.05 a 2.84,2.84 0 0 1 -3,-1.69 l -0.06,-0.14 -0.15,-0.54 c -0.25,0.24 -0.5,0.46 -0.76,0.67 a 8.47,8.47 0 0 1 -4.18,1.85 7.14,7.14 0 0 1 -5.73,-1.39 3.07,3.07 0 0 1 -0.42,0.66 2.82,2.82 0 0 1 -1.87,1 2.89,2.89 0 0 1 -2,-0.48 2.72,2.72 0 0 1 -0.8,-0.82 5.62,5.62 0 0 1 -2,1.18 A 8.49,8.49 0 0 1 7.55,150.72 13.41,13.41 0 0 1 3,148 9,9 0 0 1 0.08,143.6 v -0.1 -0.11 a 2.82,2.82 0 0 1 0.46,-2 2.88,2.88 0 0 1 1.82,-1.19 3,3 0 0 1 2,0.32 2.9,2.9 0 0 1 1.35,1.63 v 0.08 0.08 a 3.43,3.43 0 0 0 1.14,1.64 7.5,7.5 0 0 0 2.61,1.51 3.61,3.61 0 0 0 1.51,0.24 0.55,0.55 0 0 0 0,-0.16 2.94,2.94 0 0 0 -0.81,-1.92 A 25.12,25.12 0 0 0 6.74,140.36 35.45,35.45 0 0 1 2.53,136.45 8.11,8.11 0 0 1 0.32,130.61 6.09,6.09 0 0 1 2,126.88 9,9 0 0 1 5.07,124.73 8.44,8.44 0 0 1 9,124 a 6.91,6.91 0 0 1 4,1.4 5.22,5.22 0 0 1 0.81,0.75 c 0.18,0.19 0.35,0.39 0.52,0.6 a 6.3,6.3 0 0 1 0.37,0.53 2.9,2.9 0 0 1 1.77,-0.61 2.79,2.79 0 0 1 1.92,0.77 2.66,2.66 0 0 1 0.95,2 2.78,2.78 0 0 1 -0.76,1.9 3,3 0 0 1 0.34,0.28 2.83,2.83 0 0 1 0.81,1.59 7,7 0 0 1 4.71,-2.74 5.37,5.37 0 0 1 3.27,0.59 4.58,4.58 0 0 1 2.1,2.46 v 0 a 6.54,6.54 0 0 1 -0.57,5.15 8.1,8.1 0 0 1 -4,3.84 7.74,7.74 0 0 1 -2.39,0.62 4,4 0 0 0 0.58,1.55 1.24,1.24 0 0 0 1.42,0.5 3,3 0 0 0 1.44,-0.65 6.54,6.54 0 0 0 1.49,-1.7 v -0.07 l 0.05,-0.07 a 2.89,2.89 0 0 1 1.63,-1.1 3.47,3.47 0 0 1 0.91,-0.09 c -0.15,-2.62 -0.14,-5.25 -0.07,-7.84 a 2.74,2.74 0 0 1 1,-2.14 2.92,2.92 0 0 1 1.88,-0.67 2.84,2.84 0 0 1 1.87,0.69 5,5 0 0 1 2.4,-0.47 4.22,4.22 0 0 1 3,1.45 7.73,7.73 0 0 1 2.63,-1.44 7.29,7.29 0 0 1 1.5,-0.27 4.77,4.77 0 0 1 2.31,0.2 5.4,5.4 0 0 1 1.85,1.19 2.89,2.89 0 0 1 2.69,-1.84 2.89,2.89 0 0 1 2.62,1.65 6.84,6.84 0 0 1 4.15,-1.28 5.83,5.83 0 0 1 4.66,2.27 5.91,5.91 0 0 1 0.41,0.61 3,3 0 0 1 1,-0.19 2.94,2.94 0 0 1 1.31,0.31 12,12 0 0 1 4.47,-3.12 2.9,2.9 0 0 1 2,-0.08 2.83,2.83 0 0 1 1.66,1.39 1.42,1.42 0 0 1 0.12,0.2 z m 58.48,12.52 v 0 a 1.48,1.48 0 0 0 0.31,0.25 v 0 c -0.08,-0.06 -0.19,-0.16 -0.31,-0.25 z m -6.23,-6.13 -0.12,0.23 a 8.08,8.08 0 0 1 -4,3.84 7.81,7.81 0 0 1 -2.39,0.62 4,4 0 0 0 0.58,1.55 1.24,1.24 0 0 0 1.42,0.5 3,3 0 0 0 1.44,-0.65 6.71,6.71 0 0 0 1.49,-1.7 v -0.07 -0.07 a 2.92,2.92 0 0 1 1.63,-1.1 3,3 0 0 1 2,0.2 2.8,2.8 0 0 1 1.25,1.18 2.84,2.84 0 0 1 0.71,0 19.74,19.74 0 0 1 -2.08,-1.67 7.75,7.75 0 0 1 -1.93,-2.86 z m 10.79,0.41 a 2.8,2.8 0 0 1 -0.92,-0.32 2.92,2.92 0 0 1 -1.35,-1.6 v -0.09 -0.09 c 0,-0.14 -0.13,-0.18 -0.25,-0.24 a 2.85,2.85 0 0 0 -1.51,-0.24 2.66,2.66 0 0 0 -1.25,0.39 3.51,3.51 0 0 0 0.51,0.62 c 0.83,0.7 1.73,1.32 2.6,2 0.53,0.38 1.06,0.77 1.57,1.18 v 0 c 0.2,0.17 0.4,0.34 0.59,0.53 a 2,2 0 0 1 0,-0.25 2.73,2.73 0 0 1 0.01,-1.89 z m 12.75,-1.49 a 7.85,7.85 0 0 1 -0.54,1.31 8.08,8.08 0 0 1 -4,3.84 7.89,7.89 0 0 1 -2.39,0.62 4,4 0 0 0 0.58,1.55 1.22,1.22 0 0 0 1.41,0.5 3,3 0 0 0 1.45,-0.65 6.91,6.91 0 0 0 1.49,-1.7 v -0.07 l 0.05,-0.07 a 2.89,2.89 0 0 1 1.63,-1.1 3,3 0 0 1 0.32,-0.06 c 0.05,-1.39 0.05,-2.78 0,-4.17 z m 22,8 a 12.22,12.22 0 0 1 -0.47,-4.14 c 0,-0.16 0,-0.33 0,-0.49 a 2.71,2.71 0 0 1 0.2,-2.27 l 0.18,-0.29 a 13.34,13.34 0 0 1 1.35,-3.54 7.51,7.51 0 0 1 5.68,-4.19 5.37,5.37 0 0 1 3.27,0.59 4.58,4.58 0 0 1 2.1,2.46 v 0 a 6.51,6.51 0 0 1 -0.58,5.15 8.08,8.08 0 0 1 -4,3.84 7.74,7.74 0 0 1 -2.39,0.62 4,4 0 0 0 0.58,1.55 1.24,1.24 0 0 0 1.42,0.5 3,3 0 0 0 1.44,-0.65 6.54,6.54 0 0 0 1.49,-1.7 v -0.07 l 0.05,-0.07 a 2.89,2.89 0 0 1 1.63,-1.1 3,3 0 0 1 2,0.2 2.8,2.8 0 0 1 1.31,3.75 l -0.07,0.15 -0.09,0.14 A 13.9,13.9 0 0 1 184,149 a 8.47,8.47 0 0 1 -4.19,1.85 7.13,7.13 0 0 1 -5.66,-1.43 2.9,2.9 0 0 1 -1.12,1.26 h -0.07 -0.07 a 5.7,5.7 0 0 1 -6.38,-0.42 6,6 0 0 1 -1.21,-1.25 2.89,2.89 0 0 1 -4.56,0.92 2.77,2.77 0 0 1 -0.94,-2.06 c 0,-0.63 0,-1.26 0,-1.89 0,-0.94 0,-1.88 0,-2.81 0,-0.93 0,-1.72 -0.08,-2.54 a 17,17 0 0 0 -0.51,-3.41 5.86,5.86 0 0 0 -0.25,-0.74 6.45,6.45 0 0 0 -0.74,0.91 15,15 0 0 0 -1.29,2.28 17.73,17.73 0 0 0 -0.81,2 c -0.1,0.38 -0.2,0.76 -0.28,1.14 a 9.14,9.14 0 0 0 -0.16,1.17 c 0,0.44 -0.08,0.88 -0.13,1.32 -0.05,0.44 -0.07,0.89 -0.09,1.34 -0.02,0.45 -0.05,0.92 -0.09,1.38 a 1.63,1.63 0 0 1 0,0.31 v 0.39 0.06 0.22 l -0.33,0.54 a 2.86,2.86 0 0 1 -2.19,1.37 v 0 a 2.82,2.82 0 0 1 -2.76,-1.49 l -0.26,-0.47 -0.08,0.06 a 8.43,8.43 0 0 1 -4.18,1.85 7,7 0 0 1 -6.79,-2.61 4.69,4.69 0 0 1 -2.4,2.26 6.4,6.4 0 0 1 -3.62,0.37 8.83,8.83 0 0 1 -3.2,-1.21 6.54,6.54 0 0 1 -1.83,-1.64 c -0.35,0.34 -0.71,0.67 -1.09,1 a 8.47,8.47 0 0 1 -4.19,1.85 7,7 0 0 1 -7,-3 10.71,10.71 0 0 1 -1.63,-6.6 c 0,-0.16 0,-0.33 0,-0.49 a 2.71,2.71 0 0 1 0.2,-2.27 l 0.18,-0.29 a 17,17 0 0 1 0.51,-1.72 8,8 0 0 0 -2.79,4 22.59,22.59 0 0 0 -1.08,7.11 v 0.56 a 2.28,2.28 0 0 1 -0.18,0.89 2.78,2.78 0 0 1 -0.47,0.82 L 110,150 v 0 a 3,3 0 0 1 -4.25,0 v -0.06 -0.05 a 2.91,2.91 0 0 1 -0.5,-0.89 2.35,2.35 0 0 1 -0.16,-0.87 v -0.73 a 3,3 0 0 1 0,-0.42 v -1.21 c 0,-0.61 0,-1.21 0,-1.82 -0.26,0.35 -0.53,0.68 -0.81,1 a 13.85,13.85 0 0 1 -2.69,2.44 13.25,13.25 0 0 1 -3.53,1.66 v 4.15 a 2.75,2.75 0 0 1 -0.93,2.06 2.88,2.88 0 0 1 -3.88,0 2.75,2.75 0 0 1 -0.93,-2.06 c 0,-3.33 0,-6.66 0,-10 0,-3.34 0,-6.65 0,-10 a 2.76,2.76 0 0 1 0.94,-2.07 2.89,2.89 0 0 1 3.87,0 2.82,2.82 0 0 1 0.68,0.9 6.83,6.83 0 0 1 4.14,-1.28 5.84,5.84 0 0 1 4.64,2.22 c 0.15,0.2 0.28,0.4 0.41,0.61 a 2.91,2.91 0 0 1 2.34,0.12 11.92,11.92 0 0 1 4.46,-3.12 2.93,2.93 0 0 1 2,-0.08 2.81,2.81 0 0 1 1.66,1.4 c 0,0.05 0,0.11 0.08,0.17 a 6.65,6.65 0 0 1 3.64,-1.62 5.37,5.37 0 0 1 3.27,0.59 4.58,4.58 0 0 1 2.1,2.46 v 0 a 0.78,0.78 0 0 1 0,0.14 5.61,5.61 0 0 1 1.26,-1.32 8.28,8.28 0 0 1 4.4,-1.68 8.78,8.78 0 0 1 4.68,0.82 6,6 0 0 1 2.39,2 7.08,7.08 0 0 1 5,-3.05 5.37,5.37 0 0 1 3.27,0.59 4.61,4.61 0 0 1 2.08,2.4 2.67,2.67 0 0 1 0.64,-1 3,3 0 0 1 1.75,-0.83 2.8,2.8 0 0 1 2.14,0.61 3,3 0 0 1 0.52,0.56 7.85,7.85 0 0 1 2.11,-1.6 5,5 0 0 1 4.41,-0.18 2.74,2.74 0 0 1 0.59,-1.21 2.9,2.9 0 0 1 1.9,-1 h 0.28 c 0,-0.65 0.06,-1.3 0.08,-1.93 a 2.7,2.7 0 0 1 1,-2.11 2.94,2.94 0 0 1 1.88,-0.67 2.83,2.83 0 0 1 2.85,2.86 v 0 c 0,0.61 0,1.22 -0.07,1.83 h 0.18 a 3,3 0 0 1 1.78,0.84 2.75,2.75 0 0 1 0.79,2.34 2.88,2.88 0 0 1 -1,1.8 2.84,2.84 0 0 1 -2,0.63 58.24,58.24 0 0 0 0.26,10.41 2.21,2.21 0 0 0 0.34,1 l 0.19,-0.09 0.09,-0.05 v 0 a 2.9,2.9 0 0 1 1.29,-0.19 z m 33.87,-8 a 8.8,8.8 0 0 1 -0.54,1.31 8.1,8.1 0 0 1 -4,3.84 7.74,7.74 0 0 1 -2.39,0.62 4,4 0 0 0 0.58,1.55 1.24,1.24 0 0 0 1.42,0.5 3,3 0 0 0 1.44,-0.65 6.54,6.54 0 0 0 1.49,-1.7 v -0.07 l 0.05,-0.07 a 2.92,2.92 0 0 1 1.63,-1.1 l 0.32,-0.06 c 0.06,-1.39 0.06,-2.78 0.01,-4.17 z m 0,-3.94 a 2.83,2.83 0 0 1 0.65,-1 2.94,2.94 0 0 1 1.74,-0.83 2.83,2.83 0 0 1 2.15,0.61 3.06,3.06 0 0 1 0.52,0.56 7.8,7.8 0 0 1 2.1,-1.6 5.07,5.07 0 0 1 5.49,0.45 7.19,7.19 0 0 1 2.56,4.09 21.14,21.14 0 0 1 0.7,4.54 c 0.06,0.93 0.08,1.86 0.1,2.79 0.02,0.93 0,2 0,3 0,0.6 0,1.2 0,1.8 a 2.76,2.76 0 0 1 -0.93,2.06 2.88,2.88 0 0 1 -3.88,0 2.76,2.76 0 0 1 -0.93,-2.06 c 0,-0.63 0,-1.26 0,-1.89 0,-0.94 0,-1.88 0,-2.81 0,-0.93 0,-1.72 -0.08,-2.54 a 17,17 0 0 0 -0.51,-3.41 5.86,5.86 0 0 0 -0.25,-0.74 6.45,6.45 0 0 0 -0.74,0.91 14.22,14.22 0 0 0 -1.29,2.28 17.73,17.73 0 0 0 -0.81,2 c -0.11,0.38 -0.2,0.76 -0.28,1.14 a 11.37,11.37 0 0 0 -0.17,1.17 l -0.12,1.32 c -0.05,0.44 -0.07,0.89 -0.1,1.34 -0.03,0.45 0,0.92 -0.08,1.38 0,0.1 0,0.21 0,0.31 v 0.39 0.06 0.19 l -0.33,0.54 a 2.88,2.88 0 0 1 -2.2,1.37 h -0.05 a 2.83,2.83 0 0 1 -2.76,-1.49 l -0.26,-0.47 -0.07,0.06 a 8.47,8.47 0 0 1 -4.18,1.85 7,7 0 0 1 -7,-3 10.71,10.71 0 0 1 -1.64,-6.6 c 0,-0.16 0,-0.33 0,-0.49 a 2.78,2.78 0 0 1 0.2,-2.27 2.9,2.9 0 0 1 0.19,-0.29 13.32,13.32 0 0 1 1.34,-3.54 7.52,7.52 0 0 1 5.68,-4.19 5.37,5.37 0 0 1 3.27,0.59 4.61,4.61 0 0 1 1.97,2.42 z m 47.25,11.15 v 0 a 1.26,1.26 0 0 0 0.31,0.25 v 0 z M 249.9,143 a 2.9,2.9 0 0 1 0.72,0 l -0.67,-0.49 c -0.01,0.22 -0.03,0.38 -0.05,0.49 z m -13.62,2.38 a 19,19 0 0 1 -0.47,-4.32 c 0,-1.54 0.08,-3.08 0.22,-4.61 0.08,-0.9 0.21,-1.84 0.25,-2.75 l -0.06,0.06 a 2.84,2.84 0 0 1 -2,0.63 59.19,59.19 0 0 0 0.26,10.41 2.34,2.34 0 0 0 0.34,1 l 0.19,-0.09 0.09,-0.05 v 0 a 2.92,2.92 0 0 1 1.18,-0.24 z m 2.45,4.4 a 3,3 0 0 1 -0.89,0.84 h -0.07 -0.07 a 5.7,5.7 0 0 1 -6.38,-0.42 7,7 0 0 1 -2.54,-4.73 63.82,63.82 0 0 1 -0.31,-11.16 2.91,2.91 0 0 1 -1.31,-0.49 2.77,2.77 0 0 1 -0.59,-4.09 2.9,2.9 0 0 1 1.9,-1 h 0.28 c 0,-0.65 0.06,-1.3 0.08,-1.93 a 2.68,2.68 0 0 1 1,-2.11 2.92,2.92 0 0 1 3.89,0.15 2.84,2.84 0 0 1 0.83,2 v 0 c 0,0.61 0,1.22 -0.07,1.83 h 0.18 a 3,3 0 0 1 1.78,0.84 2.79,2.79 0 0 1 0.79,1.55 l 0.06,-0.06 a 3,3 0 0 1 1.87,-0.66 2.83,2.83 0 0 1 2.86,2.84 c 0,1.22 -0.18,2.44 -0.29,3.65 a 38.89,38.89 0 0 0 -0.19,4 c 0,0.91 0.13,3.83 0.92,4.56 a 2.75,2.75 0 0 0 0.52,0 v 0 c 0.13,0 0.36,-0.44 0.42,-0.56 a 9.64,9.64 0 0 0 0.8,-3.12 26.63,26.63 0 0 0 0.06,-4.19 17.25,17.25 0 0 0 -0.41,-3 v -0.1 -0.09 a 2.85,2.85 0 0 1 2.27,-3.24 2.93,2.93 0 0 1 2,0.32 2.83,2.83 0 0 1 0.67,0.51 8.41,8.41 0 0 1 3.87,-1.3 8.82,8.82 0 0 1 4.69,0.82 5.85,5.85 0 0 1 3.25,3.95 v 0.08 0.09 a 2.83,2.83 0 0 1 -0.46,2.06 2.88,2.88 0 0 1 -1.81,1.19 3,3 0 0 1 -2,-0.32 A 2.86,2.86 0 0 1 255,137 v -0.09 -0.09 c 0,-0.14 -0.13,-0.18 -0.26,-0.24 a 2.82,2.82 0 0 0 -1.5,-0.24 2.66,2.66 0 0 0 -1.26,0.39 4,4 0 0 0 0.51,0.62 c 0.83,0.7 1.73,1.32 2.6,2 0.53,0.38 1.06,0.77 1.58,1.18 v 0 a 13.79,13.79 0 0 1 1.43,1.43 6.36,6.36 0 0 1 1.34,2.39 5.65,5.65 0 0 1 0.08,2.74 4.66,4.66 0 0 1 -2.78,3.41 6.41,6.41 0 0 1 -3.62,0.37 8.76,8.76 0 0 1 -3.2,-1.21 6.59,6.59 0 0 1 -1.71,-1.48 6.19,6.19 0 0 1 -4.33,2.94 5.85,5.85 0 0 1 -5.17,-1.28 z m 103.19,-5.18 v 0 a 1.48,1.48 0 0 0 0.31,0.25 v 0 c -0.08,-0.02 -0.23,-0.12 -0.31,-0.21 z m -43.37,3.22 a 14.45,14.45 0 0 1 -1.23,1.12 9,9 0 0 1 -0.8,0.58 1.34,1.34 0 0 0 1.4,-0.44 4.13,4.13 0 0 0 0.63,-1.22 z m 37.14,-9.35 -0.12,0.23 a 8.08,8.08 0 0 1 -4,3.84 7.81,7.81 0 0 1 -2.39,0.62 4,4 0 0 0 0.58,1.55 1.24,1.24 0 0 0 1.42,0.5 3,3 0 0 0 1.44,-0.65 6.54,6.54 0 0 0 1.49,-1.7 l 0.05,-0.07 v -0.07 a 2.89,2.89 0 0 1 1.63,-1.1 3,3 0 0 1 2,0.2 2.8,2.8 0 0 1 1.31,1.18 2.84,2.84 0 0 1 0.71,0 19.74,19.74 0 0 1 -2.08,-1.67 7.75,7.75 0 0 1 -2.04,-2.82 z m 0.5,-4.78 a 5.61,5.61 0 0 1 1.26,-1.32 8.28,8.28 0 0 1 4.4,-1.68 8.78,8.78 0 0 1 4.68,0.82 5.8,5.8 0 0 1 3.25,3.95 v 0.08 0.09 a 2.79,2.79 0 0 1 -0.47,2.06 2.86,2.86 0 0 1 -1.81,1.19 3,3 0 0 1 -2,-0.32 2.92,2.92 0 0 1 -1.35,-1.62 v -0.09 -0.09 c 0,-0.14 -0.13,-0.18 -0.25,-0.24 a 2.85,2.85 0 0 0 -1.51,-0.24 2.66,2.66 0 0 0 -1.25,0.39 3.51,3.51 0 0 0 0.51,0.62 c 0.83,0.7 1.73,1.32 2.6,2 0.53,0.38 1.06,0.77 1.57,1.18 v 0 a 13,13 0 0 1 1.44,1.43 6.2,6.2 0 0 1 1.33,2.39 5.65,5.65 0 0 1 0.09,2.74 4.67,4.67 0 0 1 -2.79,3.41 6.4,6.4 0 0 1 -3.62,0.37 8.83,8.83 0 0 1 -3.2,-1.21 6.54,6.54 0 0 1 -1.83,-1.64 c -0.35,0.34 -0.71,0.67 -1.09,1 a 8.47,8.47 0 0 1 -4.19,1.85 7,7 0 0 1 -7,-3 10.71,10.71 0 0 1 -1.63,-6.6 c 0,-0.16 0,-0.33 0,-0.49 a 2.71,2.71 0 0 1 0.2,-2.27 l 0.18,-0.29 a 17,17 0 0 1 0.51,-1.72 8,8 0 0 0 -2.79,4 22.59,22.59 0 0 0 -1.08,7.11 v 0.56 a 2.28,2.28 0 0 1 -0.18,0.89 2.78,2.78 0 0 1 -0.47,0.82 l -0.07,0.08 v 0 a 3,3 0 0 1 -4.25,0 l -0.05,-0.06 v -0.05 a 2.91,2.91 0 0 1 -0.5,-0.89 2.35,2.35 0 0 1 -0.16,-0.87 7.79,7.79 0 0 1 -5.29,2.59 6.68,6.68 0 0 1 -5.16,-1.66 10.29,10.29 0 0 1 -1.65,3.43 c -1.92,2.49 -4.73,3.13 -7.69,2.46 a 2.74,2.74 0 0 1 -1.85,-1.29 2.86,2.86 0 0 1 -0.34,-2.08 2.82,2.82 0 0 1 0.27,-0.72 7.1,7.1 0 0 1 -5.62,-1.61 2.88,2.88 0 0 1 -0.73,0.91 3,3 0 0 1 -1.88,0.66 2.85,2.85 0 0 1 -2,-0.82 2.8,2.8 0 0 1 -0.84,-2 c 0,-0.59 0.05,-1.17 0.09,-1.75 0.04,-0.58 0.09,-1.16 0.12,-1.73 a 41.21,41.21 0 0 0 0,-4.16 12.85,12.85 0 0 0 -0.51,-3.37 3.81,3.81 0 0 0 -0.18,-0.46 c -1.27,0.45 -1.72,2.08 -1.93,3.27 -0.09,0.51 -0.13,1 -0.17,1.56 V 142 c 0,1 -0.06,2.08 -0.1,3.12 v 0.05 c 0,0.39 0,0.78 0,1.17 v 0.54 l -0.08,0.21 a 2.31,2.31 0 0 1 -0.38,0.9 3,3 0 0 1 -0.53,0.63 l -0.07,0.06 -0.08,0.06 a 2.85,2.85 0 0 1 -1.95,0.57 2.78,2.78 0 0 1 -1.74,-0.73 3.17,3.17 0 0 1 -0.63,-0.78 l -0.28,-0.52 v -0.37 a 1.87,1.87 0 0 1 0,-0.4 v 0 a 2,2 0 0 1 0,-0.41 c 0,-0.33 0,-0.65 0,-0.95 0,-1.29 0,-2.58 0.1,-3.87 0,-0.75 -0.08,-1.51 -0.18,-2.25 -0.1,0.48 -0.18,1 -0.24,1.41 a 40.68,40.68 0 0 0 -0.26,6.53 V 147 a 3.23,3.23 0 0 1 0,0.53 v 0.8 l -0.1,0.32 a 2.81,2.81 0 0 1 -2.36,2 v 0 a 2.83,2.83 0 0 1 -3,-1.69 l -0.06,-0.14 -0.16,-0.56 v -0.5 c 0,-0.21 0,-0.43 0,-0.64 v -0.08 c 0,-0.44 0,-0.89 0,-1.33 v -1.31 c 0,-0.28 0,-0.62 0,-0.91 v 0 -0.3 a 87.44,87.44 0 0 1 -0.18,-9.43 2.75,2.75 0 0 1 1,-2.14 2.92,2.92 0 0 1 1.87,-0.67 2.82,2.82 0 0 1 1.87,0.69 5.1,5.1 0 0 1 2.41,-0.47 4.24,4.24 0 0 1 3,1.45 7.73,7.73 0 0 1 2.63,-1.44 7.29,7.29 0 0 1 1.5,-0.27 4.77,4.77 0 0 1 2.31,0.2 5.92,5.92 0 0 1 3.13,3 7.27,7.27 0 0 1 5.3,-3.56 5.42,5.42 0 0 1 3.28,0.59 4.58,4.58 0 0 1 2.1,2.46 v 0 a 6.5,6.5 0 0 1 -0.57,5.15 8.06,8.06 0 0 1 -4,3.84 7.75,7.75 0 0 1 -2.38,0.62 3.87,3.87 0 0 0 0.58,1.55 1.22,1.22 0 0 0 1.41,0.5 3,3 0 0 0 1.45,-0.65 6.73,6.73 0 0 0 1.49,-1.7 v -0.07 l 0.05,-0.07 a 3,3 0 0 1 3.65,-0.9 1.71,1.71 0 0 1 0.23,0.13 c 0,-0.64 0,-1.27 -0.07,-1.91 -0.07,-0.64 -0.11,-1.55 -0.17,-2.33 -0.06,-0.78 -0.14,-1.45 -0.22,-2.18 -0.06,-0.49 -0.11,-1 -0.17,-1.48 a 2.76,2.76 0 0 1 0.76,-2.29 v -0.05 a 2.73,2.73 0 0 1 0,-4.12 2.89,2.89 0 0 1 1.94,-0.75 2.78,2.78 0 0 1 1.92,0.76 2.69,2.69 0 0 1 1,2 2.79,2.79 0 0 1 -0.78,1.92 2.86,2.86 0 0 1 1,1.73 v 0 0.3 a 8.34,8.34 0 0 1 3.41,-2.75 2.83,2.83 0 0 1 2.58,0.08 9.34,9.34 0 0 1 4.19,2.24 10.79,10.79 0 0 1 1,1.06 2.29,2.29 0 0 1 0.23,-0.21 3,3 0 0 1 3.19,-0.36 11.78,11.78 0 0 1 4.46,-3.11 2.87,2.87 0 0 1 2,-0.09 2.81,2.81 0 0 1 1.39,1.54 c 0,0.05 0,0.11 0.08,0.17 a 6.65,6.65 0 0 1 3.64,-1.62 5.37,5.37 0 0 1 3.27,0.59 4.58,4.58 0 0 1 2.1,2.46 v 0 a 0.78,0.78 0 0 1 0.1,0.13 z m 121,10.91 v 0 0 a 1.26,1.26 0 0 0 0.31,0.25 v 0 z m -2.83,-1.6 a 2.8,2.8 0 0 1 0.71,0 c -0.21,-0.15 -0.42,-0.3 -0.62,-0.46 z m -37.15,-5.61 a 8.85,8.85 0 0 1 -0.55,1.31 8.08,8.08 0 0 1 -4,3.84 7.81,7.81 0 0 1 -2.39,0.62 4,4 0 0 0 0.58,1.55 1.24,1.24 0 0 0 1.42,0.5 3,3 0 0 0 1.44,-0.65 6.54,6.54 0 0 0 1.49,-1.7 l 0.05,-0.07 0.05,-0.07 a 2.89,2.89 0 0 1 1.63,-1.1 c 0.11,0 0.21,0 0.32,-0.06 0.01,-1.35 0.01,-2.74 -0.03,-4.13 z m 11.56,-6.38 a 2.74,2.74 0 0 1 0.59,-1.21 2.9,2.9 0 0 1 1.9,-1 h 0.28 c 0,-0.65 0.06,-1.3 0.08,-1.93 a 2.71,2.71 0 0 1 1,-2.11 2.92,2.92 0 0 1 3.89,0.15 2.85,2.85 0 0 1 0.84,2 v 0 c 0,0.61 -0.05,1.22 -0.08,1.83 h 0.19 a 3,3 0 0 1 1.78,0.84 2.71,2.71 0 0 1 0.78,2.34 2.88,2.88 0 0 1 -1,1.8 2.83,2.83 0 0 1 -2,0.63 58.24,58.24 0 0 0 0.27,10.41 2.32,2.32 0 0 0 0.33,1 l 0.2,-0.09 0.11,-0.06 a 2.88,2.88 0 0 1 1.22,-0.26 12.06,12.06 0 0 1 -0.4,-3.79 14.47,14.47 0 0 1 1.66,-6.2 9.13,9.13 0 0 1 4.47,-4.49 2.83,2.83 0 0 1 2.58,0.08 9.4,9.4 0 0 1 4.19,2.24 l 0.1,0.1 a 5.14,5.14 0 0 1 1,-1 8.31,8.31 0 0 1 4.4,-1.68 8.82,8.82 0 0 1 4.69,0.82 5.82,5.82 0 0 1 3.25,3.95 v 0.08 0.09 a 2.87,2.87 0 0 1 -2.28,3.25 3,3 0 0 1 -2,-0.32 2.89,2.89 0 0 1 -1.35,-1.64 v -0.08 -0.07 c 0,-0.15 -0.12,-0.19 -0.26,-0.26 a 2.91,2.91 0 0 0 -1.5,-0.23 2.66,2.66 0 0 0 -1.26,0.39 4,4 0 0 0 0.51,0.62 c 0.83,0.7 1.73,1.32 2.6,2 0.53,0.38 1.06,0.77 1.58,1.18 v 0 a 12.87,12.87 0 0 1 1.43,1.43 6.36,6.36 0 0 1 1.34,2.39 5.78,5.78 0 0 1 0.09,2.74 4.67,4.67 0 0 1 -2.79,3.41 6.41,6.41 0 0 1 -3.62,0.37 8.76,8.76 0 0 1 -3.2,-1.21 6.36,6.36 0 0 1 -2.14,-2.08 7.86,7.86 0 0 1 -5.77,3.16 6.7,6.7 0 0 1 -4.73,-1.3 2.91,2.91 0 0 1 -1.12,1.24 h -0.07 -0.07 a 5.7,5.7 0 0 1 -6.38,-0.42 6.5,6.5 0 0 1 -1.21,-1.25 2.89,2.89 0 0 1 -4.56,0.92 2.76,2.76 0 0 1 -0.93,-2.06 c 0,-0.63 0,-1.26 0,-1.89 0,-0.94 0,-1.88 0,-2.81 0,-0.93 0,-1.72 -0.08,-2.54 a 17.77,17.77 0 0 0 -0.51,-3.41 c -0.05,-0.16 -0.15,-0.48 -0.26,-0.74 a 8.26,8.26 0 0 0 -0.74,0.91 15,15 0 0 0 -1.28,2.28 17.83,17.83 0 0 0 -0.82,2 c -0.1,0.37 -0.19,0.76 -0.27,1.14 a 7.67,7.67 0 0 0 -0.17,1.17 c 0,0.44 -0.08,0.88 -0.13,1.32 -0.05,0.44 -0.07,0.89 -0.09,1.34 -0.02,0.45 0,0.92 -0.09,1.38 a 1.63,1.63 0 0 1 0,0.31 v 0.39 0.06 0.36 l -0.34,0.54 a 2.85,2.85 0 0 1 -2.19,1.37 h -0.05 a 2.82,2.82 0 0 1 -2.76,-1.49 l -0.26,-0.47 -0.07,0.06 a 8.47,8.47 0 0 1 -4.19,1.85 7.13,7.13 0 0 1 -5.84,-1.58 2.88,2.88 0 0 1 -0.73,0.91 3,3 0 0 1 -1.87,0.66 2.83,2.83 0 0 1 -2.86,-2.84 c 0,-0.59 0.05,-1.17 0.09,-1.75 0.04,-0.58 0.09,-1.16 0.12,-1.73 a 41.21,41.21 0 0 0 0,-4.16 13.28,13.28 0 0 0 -0.51,-3.37 c 0,-0.1 -0.11,-0.29 -0.19,-0.46 -1.27,0.45 -1.72,2.08 -1.92,3.27 -0.09,0.51 -0.14,1 -0.18,1.56 V 142 c 0,1 -0.05,2.08 -0.1,3.12 v 0.05 c 0,0.39 0,0.78 0,1.17 v 0.54 l -0.07,0.21 a 2.47,2.47 0 0 1 -0.38,0.9 3,3 0 0 1 -0.54,0.63 l -0.07,0.06 -0.07,0.06 a 2.86,2.86 0 0 1 -1.95,0.57 2.76,2.76 0 0 1 -1.74,-0.73 3,3 0 0 1 -0.63,-0.78 l -0.29,-0.52 v -0.37 a 2.85,2.85 0 0 1 0,-0.4 v 0 a 3,3 0 0 1 0,-0.41 c 0,-0.33 0,-0.65 0,-0.95 0,-1.29 0,-2.58 0.1,-3.87 a 21.1,21.1 0 0 0 -0.18,-2.25 c -0.1,0.48 -0.18,1 -0.24,1.41 a 40.72,40.72 0 0 0 -0.25,6.53 V 147 a 4.84,4.84 0 0 1 0,0.53 v 0.8 l -0.1,0.32 a 2.79,2.79 0 0 1 -2.35,2 h -0.05 a 2.84,2.84 0 0 1 -3,-1.69 l -0.06,-0.14 -0.16,-0.56 v -0.68 a 7.87,7.87 0 0 1 -5.73,3.11 6.72,6.72 0 0 1 -4.92,-1.44 2.88,2.88 0 0 1 -0.72,0.88 3,3 0 0 1 -1.87,0.66 A 2.83,2.83 0 0 1 371,148 c 0,-0.59 0.05,-1.17 0.1,-1.75 0.05,-0.58 0.08,-1.16 0.11,-1.73 a 41.21,41.21 0 0 0 0,-4.16 13.28,13.28 0 0 0 -0.51,-3.37 4.17,4.17 0 0 0 -0.19,-0.46 c -1.27,0.45 -1.71,2.08 -1.92,3.27 -0.09,0.51 -0.14,1 -0.18,1.56 V 142 c 0,1 -0.05,2.08 -0.1,3.12 v 0.05 q 0,0.58 0,1.17 v 0.54 l -0.08,0.21 a 2.31,2.31 0 0 1 -0.38,0.9 2.73,2.73 0 0 1 -0.54,0.63 l -0.07,0.06 -0.07,0.06 a 2.85,2.85 0 0 1 -1.95,0.57 2.76,2.76 0 0 1 -1.74,-0.73 3.17,3.17 0 0 1 -0.63,-0.78 l -0.29,-0.52 v -0.37 a 2.8,2.8 0 0 1 0,-0.4 v 0 a 2.93,2.93 0 0 1 0,-0.41 c 0,-0.33 0,-0.65 0,-0.95 0,-1.29 0,-2.58 0.1,-3.87 0,-0.75 -0.09,-1.51 -0.19,-2.25 -0.1,0.48 -0.18,1 -0.24,1.41 a 40.68,40.68 0 0 0 -0.25,6.53 V 147 a 4.84,4.84 0 0 1 0,0.53 v 0.8 l -0.09,0.32 a 2.82,2.82 0 0 1 -2.36,2 h -0.05 a 2.84,2.84 0 0 1 -3,-1.69 l -0.06,-0.14 -0.15,-0.56 v -0.5 c 0,-0.21 0,-0.43 0,-0.64 v -0.08 c 0,-0.44 0,-0.89 0,-1.33 v -1.31 c 0,-0.28 0,-0.62 0,-0.91 v 0 -0.3 a 87.44,87.44 0 0 1 -0.18,-9.43 2.75,2.75 0 0 1 1,-2.14 2.9,2.9 0 0 1 1.87,-0.67 2.84,2.84 0 0 1 1.87,0.69 5.05,5.05 0 0 1 2.41,-0.47 4.26,4.26 0 0 1 3,1.45 7.55,7.55 0 0 1 2.63,-1.44 7.17,7.17 0 0 1 1.5,-0.27 4.72,4.72 0 0 1 2.3,0.2 6,6 0 0 1 3.28,3.28 8.62,8.62 0 0 1 3.87,-3.42 2.83,2.83 0 0 1 2.58,0.08 9.45,9.45 0 0 1 4.19,2.24 l 0.3,0.3 a 2.76,2.76 0 0 1 1,-2 2.94,2.94 0 0 1 1.88,-0.67 2.84,2.84 0 0 1 1.87,0.69 5,5 0 0 1 2.4,-0.47 4.26,4.26 0 0 1 3,1.45 7.6,7.6 0 0 1 2.62,-1.44 7.41,7.41 0 0 1 1.5,-0.27 4.75,4.75 0 0 1 2.31,0.2 5.92,5.92 0 0 1 3.13,3 7.27,7.27 0 0 1 5.31,-3.56 5.37,5.37 0 0 1 3.27,0.59 4.61,4.61 0 0 1 2.08,2.4 2.8,2.8 0 0 1 0.64,-1 3,3 0 0 1 1.75,-0.83 2.86,2.86 0 0 1 2.67,1.17 7.8,7.8 0 0 1 2.1,-1.6 5.08,5.08 0 0 1 4.36,-0.2 z"
         id="path22" />
      <path
         class="cls-6"
         d="m 446.1,134.71 a 6.26,6.26 0 0 0 -2.23,2.7 11,11 0 0 0 -1.08,4.37 6.48,6.48 0 0 0 0.81,3.82 2.62,2.62 0 0 0 2.62,1.22 4,4 0 0 0 2.89,-1.76 7,7 0 0 0 1.48,-4 6.43,6.43 0 0 0 -1,-4.17 5.42,5.42 0 0 0 -3.5,-2.22 m -37.36,4.51 A 3.7,3.7 0 0 0 411,139 a 4.26,4.26 0 0 0 2.06,-2 2.89,2.89 0 0 0 0.35,-2.16 c -0.17,-0.49 -0.64,-0.5 -1.09,-0.45 a 3.74,3.74 0 0 0 -2.59,2.14 10.27,10.27 0 0 0 -0.99,2.69 z M 381,134.71 a 6.26,6.26 0 0 0 -2.23,2.7 11.22,11.22 0 0 0 -1.09,4.37 6.57,6.57 0 0 0 0.82,3.82 2.61,2.61 0 0 0 2.61,1.22 4,4 0 0 0 2.9,-1.76 7,7 0 0 0 1.47,-4 6.43,6.43 0 0 0 -1,-4.17 5.44,5.44 0 0 0 -3.48,-2.18 z m -53.36,4.51 a 3.7,3.7 0 0 0 2.25,-0.19 4.26,4.26 0 0 0 2.06,-2 2.89,2.89 0 0 0 0.35,-2.16 c -0.17,-0.49 -0.64,-0.5 -1.09,-0.45 a 3.74,3.74 0 0 0 -2.59,2.14 10.27,10.27 0 0 0 -0.98,2.66 z M 309,134.71 a 6.17,6.17 0 0 0 -2.22,2.7 10.88,10.88 0 0 0 -1.09,4.37 6.48,6.48 0 0 0 0.81,3.82 2.63,2.63 0 0 0 2.62,1.22 3.93,3.93 0 0 0 2.89,-1.76 7,7 0 0 0 1.48,-4 6.43,6.43 0 0 0 -1,-4.17 5.42,5.42 0 0 0 -3.49,-2.18 z m -20.19,4.51 A 3.74,3.74 0 0 0 291,139 a 4.24,4.24 0 0 0 2.05,-2 2.84,2.84 0 0 0 0.35,-2.16 c -0.17,-0.49 -0.63,-0.5 -1.08,-0.45 a 3.74,3.74 0 0 0 -2.59,2.14 10.29,10.29 0 0 0 -0.97,2.69 z m -91.74,0 a 3.7,3.7 0 0 0 2.25,-0.19 4.21,4.21 0 0 0 2.06,-2 2.89,2.89 0 0 0 0.35,-2.16 c -0.17,-0.49 -0.63,-0.5 -1.09,-0.45 a 3.76,3.76 0 0 0 -2.59,2.14 10.64,10.64 0 0 0 -1.05,2.66 z m -21.56,0 a 3.7,3.7 0 0 0 2.25,-0.19 4.26,4.26 0 0 0 2.06,-2 2.89,2.89 0 0 0 0.35,-2.16 c -0.17,-0.49 -0.64,-0.5 -1.09,-0.45 a 3.76,3.76 0 0 0 -2.59,2.14 10.27,10.27 0 0 0 -1.03,2.66 z m -34.32,0 a 3.73,3.73 0 0 0 2.26,-0.19 4.24,4.24 0 0 0 2,-2 2.89,2.89 0 0 0 0.36,-2.16 c -0.17,-0.49 -0.64,-0.5 -1.09,-0.45 a 3.74,3.74 0 0 0 -2.59,2.14 10.29,10.29 0 0 0 -0.99,2.66 z m -23.11,0 a 3.7,3.7 0 0 0 2.25,-0.19 4.26,4.26 0 0 0 2.06,-2 2.89,2.89 0 0 0 0.35,-2.16 c -0.17,-0.49 -0.64,-0.5 -1.09,-0.45 a 3.74,3.74 0 0 0 -2.59,2.14 10.27,10.27 0 0 0 -1.06,2.66 z m -21.81,2.68 v 3.56 a 9.31,9.31 0 0 0 2.89,-1.26 10,10 0 0 0 1.93,-1.8 14,14 0 0 0 1.73,-2.51 c 0.68,-1.28 1.46,-3.23 0.46,-4.55 a 1.77,1.77 0 0 0 -1.45,-0.63 c -1.55,0 -2.71,1.3 -3.47,2.49 a 19.22,19.22 0 0 0 -2.09,4.7 z m -21.92,-2.68 a 3.7,3.7 0 0 0 2.25,-0.22 4.21,4.21 0 0 0 2.06,-2 2.89,2.89 0 0 0 0.35,-2.16 c -0.17,-0.49 -0.63,-0.5 -1.09,-0.45 a 3.76,3.76 0 0 0 -2.59,2.14 10.64,10.64 0 0 0 -0.98,2.69 z m -21.76,2.68 v 3.56 a 9.21,9.21 0 0 0 2.89,-1.26 10,10 0 0 0 1.93,-1.8 13.5,13.5 0 0 0 1.73,-2.51 c 0.68,-1.28 1.46,-3.23 0.46,-4.55 a 1.77,1.77 0 0 0 -1.45,-0.63 c -1.55,0 -2.7,1.3 -3.47,2.49 a 19.05,19.05 0 0 0 -2.09,4.7 z m -31.28,-2.68 a 3.7,3.7 0 0 0 2.25,-0.19 4.21,4.21 0 0 0 2.06,-2 2.89,2.89 0 0 0 0.35,-2.16 c -0.17,-0.49 -0.64,-0.5 -1.09,-0.45 a 3.76,3.76 0 0 0 -2.59,2.14 10.27,10.27 0 0 0 -0.98,2.66 z m 411.86,-8.82 c 0.07,-1.18 0.14,-2.37 0.17,-3.54 a 1,1 0 0 1 0.39,-0.79 1.21,1.21 0 0 1 0.79,-0.28 1.12,1.12 0 0 1 0.81,0.33 1.13,1.13 0 0 1 0.34,0.82 c 0,1.16 -0.1,2.32 -0.18,3.48 0.6,0 1.2,0.06 1.8,0.1 a 1.29,1.29 0 0 1 0.77,0.36 1,1 0 0 1 0.3,0.87 1.14,1.14 0 0 1 -0.42,0.72 1.09,1.09 0 0 1 -0.83,0.25 c -0.57,0 -1.14,-0.08 -1.71,-0.1 a 69.88,69.88 0 0 0 0.19,12.45 3.27,3.27 0 0 0 1.08,2.2 1.7,1.7 0 0 0 1.94,0 v 0 a 1.26,1.26 0 0 1 0.81,-0.07 1.17,1.17 0 0 1 0.71,0.48 1.07,1.07 0 0 1 0.12,0.87 1.17,1.17 0 0 1 -0.52,0.67 v 0 a 4,4 0 0 1 -4.56,-0.24 5.36,5.36 0 0 1 -1.89,-3.62 71.25,71.25 0 0 1 -0.21,-12.74 11.92,11.92 0 0 0 -1.33,0.11 1.19,1.19 0 0 1 -0.82,-0.2 1.07,1.07 0 0 1 -0.24,-1.59 1.22,1.22 0 0 1 0.79,-0.41 c 0.53,-0.07 1.13,-0.11 1.7,-0.13 z m -11.91,6.95 a 16.68,16.68 0 0 1 1.26,-2.12 7.58,7.58 0 0 1 2.62,-2.48 3.38,3.38 0 0 1 3.73,0.32 5.71,5.71 0 0 1 1.91,3.16 21.11,21.11 0 0 1 0.64,4.19 c 0.05,0.9 0.07,1.8 0.08,2.7 0.01,0.9 0,2 0,3 0,0.61 0,1.23 0,1.84 a 1.06,1.06 0 0 1 -0.37,0.79 1.15,1.15 0 0 1 -0.79,0.31 1.2,1.2 0 0 1 -0.8,-0.31 1,1 0 0 1 -0.36,-0.79 c 0,-0.62 0,-1.24 0,-1.85 0,-1 0,-1.92 0,-2.87 0,-0.95 0,-1.77 -0.09,-2.65 a 19.1,19.1 0 0 0 -0.57,-3.75 4,4 0 0 0 -1,-2 1.15,1.15 0 0 0 -1.28,-0.11 5.46,5.46 0 0 0 -1.73,1.75 15.51,15.51 0 0 0 -1.51,2.52 19.83,19.83 0 0 0 -0.9,2.27 c -0.12,0.41 -0.22,0.83 -0.31,1.24 a 13.07,13.07 0 0 0 -0.19,1.38 c 0,0.43 -0.08,0.85 -0.13,1.28 -0.05,0.43 -0.07,1 -0.1,1.44 -0.03,0.44 0,0.91 -0.08,1.36 a 0.73,0.73 0 0 1 0,0.25 v 0.11 0.06 0.07 l -0.08,0.13 a 1.16,1.16 0 0 1 -0.91,0.57 1.09,1.09 0 0 1 -1.13,-0.59 l -0.14,-0.24 v 0 -0.06 -4.71 c 0,-2.92 0,-6.08 -0.21,-9 a 1,1 0 0 1 0.3,-0.83 1.24,1.24 0 0 1 0.75,-0.36 1.15,1.15 0 0 1 1.27,1 c 0.04,0.98 0.09,1.98 0.12,2.98 z m -39.58,-4.74 a 7.82,7.82 0 0 1 3.7,1.9 7.55,7.55 0 0 1 2.06,3.14 9.91,9.91 0 0 1 0.37,3.59 9.7,9.7 0 0 1 -2,5.22 6.17,6.17 0 0 1 -4.59,2.56 4.89,4.89 0 0 1 -4.74,-2.23 8.46,8.46 0 0 1 -1.16,-5.09 12.85,12.85 0 0 1 1.47,-5.5 7.49,7.49 0 0 1 3.65,-3.71 1.17,1.17 0 0 1 1.24,0.12 z m -17.24,8.64 a 24,24 0 0 0 -0.37,-3.59 7.42,7.42 0 0 0 -0.67,-2.11 c -0.06,-0.1 -0.28,-0.46 -0.39,-0.5 -0.66,0 -1.09,0.65 -1.35,1.17 a 13,13 0 0 0 -1.05,3.93 42.84,42.84 0 0 0 -0.27,6.8 v 0.23 a 2.56,2.56 0 0 1 0,0.39 v 0.55 0.08 a 1.22,1.22 0 0 1 -2.23,0.12 v 0 l -0.06,-0.23 v -0.26 a 7.33,7.33 0 0 0 0,-0.79 c 0,-0.42 0,-0.84 0,-1.26 v -1.38 c 0,-0.37 0,-0.92 0,-1.29 V 143 a 87.33,87.33 0 0 1 -0.17,-9.29 1.06,1.06 0 0 1 0.39,-0.82 1.27,1.27 0 0 1 0.79,-0.28 1.12,1.12 0 0 1 0.81,0.33 1.1,1.1 0 0 1 0.34,0.79 c 0,0.22 0,0.44 0,0.66 a 3.5,3.5 0 0 1 3.06,-1.56 2.88,2.88 0 0 1 2.36,1.69 7.24,7.24 0 0 1 0.41,1 5.7,5.7 0 0 1 4.61,-3 3.45,3.45 0 0 1 1.5,0.1 4.68,4.68 0 0 1 2.59,3.06 16.12,16.12 0 0 1 0.69,4.42 c 0.07,1.52 0.05,3 0,4.56 0,0.59 -0.08,1.18 -0.13,1.77 -0.05,0.59 -0.08,1.05 -0.08,1.56 a 1,1 0 0 1 -0.39,0.79 1.21,1.21 0 0 1 -0.79,0.28 1.12,1.12 0 0 1 -0.81,-0.33 1.09,1.09 0 0 1 -0.34,-0.8 c 0,-0.53 0,-1.1 0.09,-1.63 0.09,-0.53 0.09,-1.17 0.12,-1.76 a 41.7,41.7 0 0 0 0,-4.33 14.57,14.57 0 0 0 -0.59,-3.83 2.66,2.66 0 0 0 -1.22,-1.69 h -0.38 v 0 a 3.63,3.63 0 0 0 -0.66,0.1 c -2,0.66 -2.79,2.7 -3.13,4.62 a 17.8,17.8 0 0 0 -0.19,1.79 v 0.7 c 0,1 -0.06,2.07 -0.11,3.08 v 0.09 c 0,0.37 0,0.74 0,1.11 v 0.29 0.1 a 0.72,0.72 0 0 1 -0.13,0.37 1.42,1.42 0 0 1 -0.25,0.3 v 0 0 a 1.14,1.14 0 0 1 -0.81,0.24 1.11,1.11 0 0 1 -0.71,-0.3 1.35,1.35 0 0 1 -0.28,-0.35 l -0.07,-0.13 v -0.12 a 0.64,0.64 0 0 1 0,-0.2 v 0 a 0.76,0.76 0 0 1 0,-0.21 c 0,-0.38 0,-0.76 0,-1.13 -0.22,-1.19 -0.23,-2.53 -0.13,-3.79 z m -23.94,-2.66 c 0.86,0.73 1.85,1.42 2.75,2.08 0.51,0.37 1,0.74 1.52,1.14 a 11.44,11.44 0 0 1 1.25,1.26 4.58,4.58 0 0 1 1,1.73 4,4 0 0 1 0.06,1.92 3,3 0 0 1 -1.8,2.19 4.73,4.73 0 0 1 -2.66,0.26 7.3,7.3 0 0 1 -2.58,-1 4.68,4.68 0 0 1 -1.79,-1.9 v 0 0 a 1.19,1.19 0 0 1 0,-0.79 1,1 0 0 1 0.67,-0.62 1.4,1.4 0 0 1 0.81,0 1.13,1.13 0 0 1 0.68,0.59 2.36,2.36 0 0 0 0.95,1 4.58,4.58 0 0 0 1.64,0.55 2.53,2.53 0 0 0 1.31,-0.09 0.74,0.74 0 0 0 0.47,-0.59 1.84,1.84 0 0 0 -0.43,-1.69 13.85,13.85 0 0 0 -2.51,-2.2 31.91,31.91 0 0 1 -2.92,-2.25 5.28,5.28 0 0 1 -1.83,-3.2 3.47,3.47 0 0 1 1.42,-3.2 6.62,6.62 0 0 1 3.51,-1.33 7.16,7.16 0 0 1 3.79,0.66 4.11,4.11 0 0 1 2.33,2.82 v 0 a 1.07,1.07 0 0 1 -0.19,0.81 1.13,1.13 0 0 1 -0.72,0.48 1.25,1.25 0 0 1 -0.83,-0.14 1.08,1.08 0 0 1 -0.55,-0.65 v 0 a 2,2 0 0 0 -1.18,-1.39 4.58,4.58 0 0 0 -2.42,-0.4 4.18,4.18 0 0 0 -2.19,0.78 1.49,1.49 0 0 0 -0.64,1.39 3.34,3.34 0 0 0 1.08,1.78 z m -15.19,0.44 a 12.18,12.18 0 0 1 1.26,-3.51 5.86,5.86 0 0 1 4.43,-3.32 3.62,3.62 0 0 1 2.24,0.38 2.84,2.84 0 0 1 1.34,1.57 4.81,4.81 0 0 1 -0.48,3.81 6.32,6.32 0 0 1 -3.17,3 6.05,6.05 0 0 1 -3.51,0.42 7.18,7.18 0 0 0 1,4.28 2.89,2.89 0 0 0 3.07,1.23 4.63,4.63 0 0 0 2.26,-1 8.3,8.3 0 0 0 1.88,-2.13 v 0 0 a 1.24,1.24 0 0 1 1.52,-0.37 1.11,1.11 0 0 1 0.57,0.65 1.13,1.13 0 0 1 -0.06,0.83 v 0 0 a 11.92,11.92 0 0 1 -2.46,2.7 6.72,6.72 0 0 1 -3.34,1.49 5.27,5.27 0 0 1 -5.4,-2.22 9.11,9.11 0 0 1 -1.33,-5.6 8.44,8.44 0 0 1 0,-0.87 1,1 0 0 1 0,-1.1 1,1 0 0 1 0.18,-0.27 z m -9,8.18 a 0.85,0.85 0 0 1 0,-0.23 v -1.21 c 0,-0.7 0,-1.4 0,-2.09 0,-0.69 0,-1.55 0,-2.34 0,-1.71 0.09,-3.42 0.14,-5.12 a 1,1 0 0 1 0.39,-0.79 1.25,1.25 0 0 1 0.79,-0.28 1.13,1.13 0 0 1 1.14,1.15 c 0,0.2 0,0.41 0,0.61 a 10.57,10.57 0 0 1 5.3,-4.7 1.13,1.13 0 0 1 0.83,0 1.11,1.11 0 0 1 0.67,0.55 1,1 0 0 1 0,0.86 1.13,1.13 0 0 1 -0.63,0.62 9,9 0 0 0 -5.09,5.71 24.16,24.16 0 0 0 -1.17,7.69 v 0.56 a 0.68,0.68 0 0 1 -0.07,0.27 0.94,0.94 0 0 1 -0.2,0.35 v 0 a 1.06,1.06 0 0 1 -0.82,0.36 1.13,1.13 0 0 1 -0.93,-0.35 v 0 0 a 1,1 0 0 1 -0.2,-0.37 0.72,0.72 0 0 1 -0.06,-0.29 z m -6.71,-14.6 a 7.82,7.82 0 0 1 3.7,1.9 7.46,7.46 0 0 1 2.06,3.14 9.91,9.91 0 0 1 0.37,3.59 9.7,9.7 0 0 1 -2,5.22 6.15,6.15 0 0 1 -4.59,2.56 4.89,4.89 0 0 1 -4.74,-2.23 8.53,8.53 0 0 1 -1.16,-5.09 12.72,12.72 0 0 1 1.48,-5.5 7.47,7.47 0 0 1 3.64,-3.71 1.17,1.17 0 0 1 1.27,0.12 z m -7.6,-3.69 a 1,1 0 0 1 0.39,0.77 1,1 0 0 1 -0.37,0.79 1.15,1.15 0 0 1 -0.79,0.31 1.18,1.18 0 0 1 -0.8,-0.31 1,1 0 0 1 -0.37,-0.79 1.06,1.06 0 0 1 0.37,-0.79 1.2,1.2 0 0 1 0.8,-0.31 1.07,1.07 0 0 1 0.77,0.33 z m -6.82,24.35 a 1,1 0 0 1 -0.72,-0.49 1.1,1.1 0 0 1 -0.14,-0.83 1,1 0 0 1 0.57,-0.71 1.28,1.28 0 0 1 0.86,-0.09 3.18,3.18 0 0 0 3.53,-1 10.36,10.36 0 0 0 1.51,-4.95 23.69,23.69 0 0 0 0.14,-2.53 c 0,-0.91 0,-1.81 -0.09,-2.72 -0.09,-0.91 -0.1,-1.58 -0.17,-2.36 -0.07,-0.78 -0.14,-1.49 -0.22,-2.23 -0.06,-0.5 -0.11,-1 -0.17,-1.51 a 1,1 0 0 1 0.29,-0.88 1.22,1.22 0 0 1 0.75,-0.35 1.09,1.09 0 0 1 0.85,0.24 1.07,1.07 0 0 1 0.42,0.73 c 0.07,0.5 0.12,1 0.18,1.53 0.08,0.75 0.16,1.51 0.22,2.27 0.06,0.76 0.13,1.62 0.18,2.43 0.05,1 0.08,1.91 0.08,2.87 0,0.96 -0.05,1.81 -0.14,2.71 a 12.13,12.13 0 0 1 -1.94,6 c -1.51,2.01 -3.66,2.41 -5.99,1.87 z m -64.91,-20.66 a 11.73,11.73 0 0 0 -1.33,0.11 1.18,1.18 0 0 1 -0.82,-0.2 1.07,1.07 0 0 1 -0.24,-1.59 1.2,1.2 0 0 1 0.79,-0.41 c 0.56,-0.06 1.13,-0.1 1.69,-0.12 0.08,-1.18 0.15,-2.37 0.18,-3.54 a 1,1 0 0 1 0.39,-0.79 1.19,1.19 0 0 1 0.79,-0.28 1.12,1.12 0 0 1 0.81,0.33 1.13,1.13 0 0 1 0.34,0.82 q -0.06,1.74 -0.18,3.48 c 0.6,0 1.19,0.06 1.8,0.1 a 1.32,1.32 0 0 1 0.77,0.36 1,1 0 0 1 0.29,0.87 1.08,1.08 0 0 1 -0.41,0.72 1.1,1.1 0 0 1 -0.83,0.25 c -0.57,0 -1.14,-0.08 -1.71,-0.1 a 68.05,68.05 0 0 0 0.19,12.45 3.27,3.27 0 0 0 1.08,2.2 1.7,1.7 0 0 0 1.94,0 v 0 a 1.28,1.28 0 0 1 0.82,-0.07 1.17,1.17 0 0 1 0.71,0.48 1,1 0 0 1 0.11,0.87 1.12,1.12 0 0 1 -0.51,0.67 v 0 a 4,4 0 0 1 -4.55,-0.24 5.37,5.37 0 0 1 -1.9,-3.62 70.33,70.33 0 0 1 -0.22,-12.75 z M 207,134.54 a 1,1 0 0 1 0.3,-0.83 1.29,1.29 0 0 1 0.75,-0.36 1.13,1.13 0 0 1 0.85,0.25 1.17,1.17 0 0 1 0.43,0.77 c 0.09,1 0.14,2 0.17,3 a 16.68,16.68 0 0 1 1.26,-2.12 7.58,7.58 0 0 1 2.62,-2.48 3.4,3.4 0 0 1 3.74,0.32 5.75,5.75 0 0 1 1.9,3.16 20.41,20.41 0 0 1 0.64,4.19 c 0.06,0.9 0.08,1.8 0.09,2.7 0.01,0.9 0,2 0,3 0,0.61 0,1.23 0,1.84 a 1,1 0 0 1 -0.36,0.79 1.2,1.2 0 0 1 -0.8,0.31 1.15,1.15 0 0 1 -0.79,-0.31 1.06,1.06 0 0 1 -0.37,-0.79 c 0,-0.62 0,-1.24 0,-1.85 0,-1 0,-1.92 0,-2.87 0,-0.95 0,-1.77 -0.09,-2.65 a 19.86,19.86 0 0 0 -0.56,-3.75 4.16,4.16 0 0 0 -1,-2 1.17,1.17 0 0 0 -1.29,-0.11 5.46,5.46 0 0 0 -1.73,1.75 17.13,17.13 0 0 0 -1.44,2.54 19.83,19.83 0 0 0 -0.9,2.27 c -0.11,0.41 -0.22,0.83 -0.3,1.24 a 10.93,10.93 0 0 0 -0.2,1.38 l -0.12,1.28 c -0.06,0.47 -0.08,1 -0.1,1.44 -0.02,0.44 0,0.91 -0.09,1.36 a 1.07,1.07 0 0 1 0,0.25 v 0.11 0.06 0.07 l -0.08,0.13 a 1.16,1.16 0 0 1 -0.91,0.57 1.09,1.09 0 0 1 -1.13,-0.59 l -0.14,-0.24 v 0 -0.06 -4.71 c -0.1,-2.98 -0.05,-6.15 -0.35,-9.06 z M 194.69,139 a 12.18,12.18 0 0 1 1.26,-3.51 5.86,5.86 0 0 1 4.38,-3.32 3.65,3.65 0 0 1 2.25,0.38 2.86,2.86 0 0 1 1.33,1.57 4.81,4.81 0 0 1 -0.48,3.81 6.34,6.34 0 0 1 -3.16,3 6.1,6.1 0 0 1 -3.52,0.42 7.26,7.26 0 0 0 1,4.28 2.89,2.89 0 0 0 3.07,1.23 4.59,4.59 0 0 0 2.26,-1 8.34,8.34 0 0 0 1.89,-2.13 v 0 a 1.21,1.21 0 0 1 0.68,-0.45 1.16,1.16 0 0 1 0.84,0.08 1.1,1.1 0 0 1 0.51,1.48 v 0 0 a 11.92,11.92 0 0 1 -2.46,2.7 6.72,6.72 0 0 1 -3.34,1.49 5.25,5.25 0 0 1 -5.39,-2.22 9.12,9.12 0 0 1 -1.34,-5.6 8.44,8.44 0 0 1 0,-0.87 1,1 0 0 1 0,-1.1 1.18,1.18 0 0 1 0.22,-0.24 z m -21.56,0 a 12.18,12.18 0 0 1 1.26,-3.51 5.86,5.86 0 0 1 4.38,-3.32 3.66,3.66 0 0 1 2.25,0.38 2.86,2.86 0 0 1 1.33,1.57 4.81,4.81 0 0 1 -0.48,3.81 6.32,6.32 0 0 1 -3.17,3 6.05,6.05 0 0 1 -3.51,0.42 7.26,7.26 0 0 0 1,4.28 2.89,2.89 0 0 0 3.07,1.23 4.59,4.59 0 0 0 2.26,-1 8.3,8.3 0 0 0 1.88,-2.13 v 0 0 a 1.24,1.24 0 0 1 1.52,-0.37 1.11,1.11 0 0 1 0.57,0.65 1.13,1.13 0 0 1 -0.06,0.83 v 0 0 a 11.92,11.92 0 0 1 -2.46,2.7 6.72,6.72 0 0 1 -3.34,1.49 5.25,5.25 0 0 1 -5.39,-2.22 9,9 0 0 1 -1.34,-5.6 8.44,8.44 0 0 1 0,-0.87 1,1 0 0 1 0,-1.1 1,1 0 0 1 0.23,-0.24 z m -7.65,-6.42 a 11.73,11.73 0 0 0 -1.33,0.11 1.18,1.18 0 0 1 -0.82,-0.2 1.07,1.07 0 0 1 -0.24,-1.59 1.2,1.2 0 0 1 0.79,-0.41 c 0.56,-0.06 1.13,-0.1 1.69,-0.12 0.08,-1.18 0.15,-2.37 0.18,-3.54 a 1,1 0 0 1 0.39,-0.79 1.19,1.19 0 0 1 0.79,-0.28 1.12,1.12 0 0 1 0.81,0.33 1.09,1.09 0 0 1 0.33,0.82 c 0,1.16 -0.1,2.32 -0.17,3.48 0.6,0 1.19,0.06 1.8,0.1 a 1.32,1.32 0 0 1 0.77,0.36 1,1 0 0 1 0.29,0.87 1.08,1.08 0 0 1 -0.41,0.72 1.1,1.1 0 0 1 -0.83,0.25 c -0.57,0 -1.14,-0.08 -1.72,-0.1 a 69,69 0 0 0 0.2,12.45 3.27,3.27 0 0 0 1.08,2.2 1.69,1.69 0 0 0 1.93,0 v 0 a 1.28,1.28 0 0 1 0.82,-0.07 1.17,1.17 0 0 1 0.71,0.48 1,1 0 0 1 0.11,0.87 1.12,1.12 0 0 1 -0.51,0.67 v 0 a 4,4 0 0 1 -4.55,-0.24 5.37,5.37 0 0 1 -1.9,-3.62 70.33,70.33 0 0 1 -0.21,-12.72 z m -11.81,4.74 a 16.68,16.68 0 0 1 1.26,-2.12 7.41,7.41 0 0 1 2.62,-2.48 3.39,3.39 0 0 1 3.73,0.32 5.69,5.69 0 0 1 1.9,3.16 20.41,20.41 0 0 1 0.64,4.19 c 0.06,0.9 0.08,1.8 0.09,2.7 0.01,0.9 0,2 0,3 0,0.61 0,1.23 0,1.84 a 1.06,1.06 0 0 1 -0.37,0.79 1.15,1.15 0 0 1 -0.79,0.31 1.18,1.18 0 0 1 -0.8,-0.31 1.06,1.06 0 0 1 -0.37,-0.79 c 0,-0.62 0,-1.24 0,-1.85 0,-1 0,-1.92 0,-2.87 0,-0.95 0,-1.77 -0.08,-2.65 a 19.88,19.88 0 0 0 -0.57,-3.75 4.07,4.07 0 0 0 -1,-2 1.15,1.15 0 0 0 -1.28,-0.11 5.46,5.46 0 0 0 -1.73,1.75 15.51,15.51 0 0 0 -1.44,2.54 21.93,21.93 0 0 0 -0.91,2.27 c -0.11,0.41 -0.21,0.83 -0.3,1.24 a 10.93,10.93 0 0 0 -0.2,1.38 c 0,0.43 -0.07,0.85 -0.12,1.28 -0.05,0.43 -0.08,1 -0.1,1.44 -0.02,0.44 0,0.91 -0.09,1.36 a 1.07,1.07 0 0 1 0,0.25 v 0.11 0.06 0.07 l -0.09,0.14 a 1.15,1.15 0 0 1 -0.9,0.56 1.1,1.1 0 0 1 -1.14,-0.59 l -0.13,-0.24 v 0 -0.07 -4.71 c 0,-2.91 0,-6.08 -0.2,-9 a 1,1 0 0 1 0.29,-0.83 1.29,1.29 0 0 1 0.75,-0.36 1.14,1.14 0 0 1 0.86,0.25 1.16,1.16 0 0 1 0.42,0.77 c -0.04,0.98 0.02,1.98 0.05,2.98 z M 138.82,139 a 12.16,12.16 0 0 1 1.25,-3.51 5.87,5.87 0 0 1 4.39,-3.32 3.62,3.62 0 0 1 2.24,0.38 2.92,2.92 0 0 1 1.34,1.57 4.85,4.85 0 0 1 -0.48,3.81 6.36,6.36 0 0 1 -3.17,3 6.07,6.07 0 0 1 -3.51,0.42 7.18,7.18 0 0 0 1,4.28 2.89,2.89 0 0 0 3.07,1.23 4.67,4.67 0 0 0 2.26,-1 8.5,8.5 0 0 0 1.88,-2.13 v 0 0 a 1.24,1.24 0 0 1 1.51,-0.37 1.12,1.12 0 0 1 0.58,0.65 1.09,1.09 0 0 1 -0.07,0.83 v 0 0 a 11.94,11.94 0 0 1 -2.46,2.7 6.76,6.76 0 0 1 -3.34,1.49 5.27,5.27 0 0 1 -5.4,-2.22 9.18,9.18 0 0 1 -1.34,-5.6 8.46,8.46 0 0 1 0,-0.87 1,1 0 0 1 0,-1.1 1,1 0 0 1 0.25,-0.24 z m -7.93,-0.44 c 0.86,0.73 1.85,1.42 2.75,2.08 0.51,0.37 1,0.74 1.52,1.14 a 11.44,11.44 0 0 1 1.25,1.26 4.58,4.58 0 0 1 1,1.73 4,4 0 0 1 0.06,1.92 3,3 0 0 1 -1.8,2.19 4.73,4.73 0 0 1 -2.66,0.26 7.3,7.3 0 0 1 -2.58,-1 4.68,4.68 0 0 1 -1.79,-1.9 v 0 0 a 1.19,1.19 0 0 1 0,-0.79 1,1 0 0 1 0.67,-0.62 1.4,1.4 0 0 1 0.81,0 1.13,1.13 0 0 1 0.68,0.59 2.36,2.36 0 0 0 0.95,1 4.51,4.51 0 0 0 1.64,0.61 2.53,2.53 0 0 0 1.31,-0.09 0.74,0.74 0 0 0 0.47,-0.59 1.84,1.84 0 0 0 -0.43,-1.69 13.85,13.85 0 0 0 -2.51,-2.2 31.91,31.91 0 0 1 -2.92,-2.25 5.28,5.28 0 0 1 -1.83,-3.2 3.47,3.47 0 0 1 1.42,-3.2 6.62,6.62 0 0 1 3.51,-1.33 7.16,7.16 0 0 1 3.79,0.66 4.11,4.11 0 0 1 2.33,2.82 v 0 a 1.07,1.07 0 0 1 -0.19,0.81 1.13,1.13 0 0 1 -0.72,0.48 1.25,1.25 0 0 1 -0.83,-0.14 1.08,1.08 0 0 1 -0.55,-0.65 v 0 A 2,2 0 0 0 135,135 a 4.58,4.58 0 0 0 -2.42,-0.4 4.18,4.18 0 0 0 -2.19,0.78 1.49,1.49 0 0 0 -0.64,1.39 3.34,3.34 0 0 0 1.14,1.82 z M 115.7,139 a 12.18,12.18 0 0 1 1.26,-3.51 5.84,5.84 0 0 1 4.38,-3.32 3.62,3.62 0 0 1 2.24,0.38 2.84,2.84 0 0 1 1.34,1.57 4.81,4.81 0 0 1 -0.48,3.81 6.32,6.32 0 0 1 -3.17,3 6.05,6.05 0 0 1 -3.51,0.42 7.26,7.26 0 0 0 1,4.28 2.89,2.89 0 0 0 3.07,1.23 4.63,4.63 0 0 0 2.26,-1 8.3,8.3 0 0 0 1.88,-2.13 v 0 0 a 1.24,1.24 0 0 1 1.52,-0.37 1.11,1.11 0 0 1 0.57,0.65 1.13,1.13 0 0 1 -0.06,0.83 v 0 0 a 11.92,11.92 0 0 1 -2.46,2.7 6.72,6.72 0 0 1 -3.34,1.49 5.27,5.27 0 0 1 -5.4,-2.22 9.11,9.11 0 0 1 -1.33,-5.6 8.44,8.44 0 0 1 0,-0.87 1,1 0 0 1 0,-1.1 0.9,0.9 0 0 1 0.23,-0.24 z m -9,8.18 a 0.85,0.85 0 0 1 0,-0.23 v -1.21 c 0,-0.7 0,-1.4 0,-2.09 0,-0.69 0,-1.55 0,-2.34 0,-1.71 0.09,-3.42 0.14,-5.12 a 1,1 0 0 1 0.39,-0.79 1.25,1.25 0 0 1 0.79,-0.28 1.13,1.13 0 0 1 1.14,1.15 c 0,0.2 0,0.41 0,0.61 a 10.53,10.53 0 0 1 5.3,-4.7 1.13,1.13 0 0 1 0.83,0 1.11,1.11 0 0 1 0.67,0.55 1,1 0 0 1 0,0.86 1.13,1.13 0 0 1 -0.63,0.62 9,9 0 0 0 -5.09,5.71 24.16,24.16 0 0 0 -1.17,7.69 v 0.56 a 0.68,0.68 0 0 1 -0.07,0.27 0.94,0.94 0 0 1 -0.2,0.35 v 0 a 1.06,1.06 0 0 1 -0.82,0.36 1.13,1.13 0 0 1 -0.93,-0.35 v 0 0 a 1,1 0 0 1 -0.2,-0.37 0.72,0.72 0 0 1 -0.06,-0.29 z m -10.49,0.53 v 5.46 a 1,1 0 0 1 -0.37,0.79 1.2,1.2 0 0 1 -0.8,0.31 1.15,1.15 0 0 1 -0.79,-0.31 1,1 0 0 1 -0.37,-0.79 c 0,-3.33 0,-6.65 0,-10 0,-3.35 0,-6.66 0,-10 a 1,1 0 0 1 0.37,-0.79 1.15,1.15 0 0 1 0.79,-0.31 1.2,1.2 0 0 1 0.8,0.31 1,1 0 0 1 0.36,0.79 v 2.9 l 0.08,-0.12 c 1.27,-1.92 3,-3.57 5.48,-3.51 a 4.09,4.09 0 0 1 3.32,1.55 c 1.58,2.08 0.86,4.69 -0.27,6.8 a 15.06,15.06 0 0 1 -2,3 11.94,11.94 0 0 1 -2.35,2.14 12.57,12.57 0 0 1 -4.22,1.81 z M 72,139 a 12.18,12.18 0 0 1 1.26,-3.51 5.86,5.86 0 0 1 4.38,-3.32 3.65,3.65 0 0 1 2.25,0.38 2.86,2.86 0 0 1 1.33,1.57 4.81,4.81 0 0 1 -0.48,3.81 6.34,6.34 0 0 1 -3.16,3 6.1,6.1 0 0 1 -3.52,0.42 7.26,7.26 0 0 0 1,4.28 2.89,2.89 0 0 0 3.07,1.23 4.59,4.59 0 0 0 2.26,-1 8.34,8.34 0 0 0 1.89,-2.13 v 0 a 1.21,1.21 0 0 1 0.68,-0.45 1.16,1.16 0 0 1 0.84,0.08 1.1,1.1 0 0 1 0.51,1.48 v 0 0 a 11.92,11.92 0 0 1 -2.46,2.7 6.72,6.72 0 0 1 -3.34,1.49 5.26,5.26 0 0 1 -5.39,-2.22 9.12,9.12 0 0 1 -1.34,-5.6 8.44,8.44 0 0 1 0,-0.87 1,1 0 0 1 0,-1.1 A 1.18,1.18 0 0 1 72,139 Z m -9,8.18 a 0.85,0.85 0 0 1 0,-0.23 v -1.21 c 0,-0.7 0,-1.4 0,-2.09 0,-0.69 0,-1.55 0,-2.34 0,-1.71 0.09,-3.42 0.14,-5.12 a 1,1 0 0 1 0.39,-0.79 1.27,1.27 0 0 1 0.79,-0.28 1.12,1.12 0 0 1 0.81,0.33 1.13,1.13 0 0 1 0.34,0.82 c 0,0.2 0,0.41 0,0.61 a 10.55,10.55 0 0 1 5.31,-4.7 1.13,1.13 0 0 1 0.83,0 1.06,1.06 0 0 1 0.66,0.55 1,1 0 0 1 0,0.86 1.13,1.13 0 0 1 -0.63,0.62 9,9 0 0 0 -5.08,5.71 24.13,24.13 0 0 0 -1.18,7.69 v 0.56 a 0.68,0.68 0 0 1 -0.07,0.27 0.94,0.94 0 0 1 -0.2,0.35 v 0 a 1.09,1.09 0 0 1 -0.82,0.36 1.14,1.14 0 0 1 -0.94,-0.35 v 0 a 0.91,0.91 0 0 1 -0.21,-0.37 0.72,0.72 0 0 1 -0.06,-0.29 z m -10.49,0.53 v 5.46 a 1,1 0 0 1 -0.37,0.79 1.18,1.18 0 0 1 -0.8,0.31 1.15,1.15 0 0 1 -0.79,-0.31 1,1 0 0 1 -0.37,-0.79 c 0,-3.33 0,-6.65 0,-10 0,-3.35 0,-6.66 0,-10 a 1,1 0 0 1 0.37,-0.79 1.15,1.15 0 0 1 0.79,-0.31 1.18,1.18 0 0 1 0.8,0.31 1,1 0 0 1 0.37,0.79 v 2.9 l 0.08,-0.12 c 1.26,-1.92 3,-3.57 5.47,-3.51 a 4.08,4.08 0 0 1 3.32,1.55 c 1.59,2.08 0.86,4.69 -0.26,6.8 a 16,16 0 0 1 -2,3 12,12 0 0 1 -2.28,2.21 12.57,12.57 0 0 1 -4.28,1.74 z m -18.14,-13.3 a 3.49,3.49 0 0 1 3.06,-1.56 2.87,2.87 0 0 1 2.35,1.69 8.8,8.8 0 0 1 0.42,1 6,6 0 0 1 3.43,-2.76 5.87,5.87 0 0 1 1.17,-0.21 3.44,3.44 0 0 1 1.5,0.1 4.71,4.71 0 0 1 2.6,3.06 16.51,16.51 0 0 1 0.69,4.42 c 0.07,1.52 0,3 0,4.56 0,0.59 -0.08,1.18 -0.12,1.77 -0.04,0.59 -0.09,1.05 -0.09,1.56 A 1,1 0 0 1 49,148.83 1.22,1.22 0 0 1 48.2,149.11 1.12,1.12 0 0 1 47.39,148.78 1.08,1.08 0 0 1 47,148 c 0,-0.53 0,-1.1 0.09,-1.63 l 0.12,-1.76 c 0.07,-1.44 0.1,-2.89 0,-4.33 a 14.57,14.57 0 0 0 -0.59,-3.83 2.67,2.67 0 0 0 -1.23,-1.69 h -0.37 v 0 a 3.52,3.52 0 0 0 -0.65,0.1 c -2,0.66 -2.8,2.7 -3.13,4.62 a 17.81,17.81 0 0 0 -0.2,1.79 v 0.7 c 0,1 -0.06,2.07 -0.1,3.08 v 0.09 c 0,0.37 0,0.74 0,1.11 v 0.29 0.1 a 0.72,0.72 0 0 1 -0.13,0.37 1.48,1.48 0 0 1 -0.26,0.3 v 0 0 a 1.19,1.19 0 0 1 -1.51,-0.06 1.17,1.17 0 0 1 -0.28,-0.35 l -0.07,-0.13 v -0.12 a 0.45,0.45 0 0 1 0,-0.2 v 0 a 0.78,0.78 0 0 1 0,-0.21 c 0,-0.38 0,-0.76 0,-1.13 0,-1.26 0,-2.6 0.1,-3.86 a 24,24 0 0 0 -0.37,-3.59 7.1,7.1 0 0 0 -0.66,-2.11 c -0.06,-0.1 -0.28,-0.46 -0.39,-0.5 -0.66,0 -1.09,0.65 -1.35,1.17 a 13,13 0 0 0 -1.05,3.93 41.69,41.69 0 0 0 -0.28,6.8 v 0.23 a 1.72,1.72 0 0 1 0,0.39 v 0.55 0.08 a 1.22,1.22 0 0 1 -2.23,0.12 v 0 l -0.07,-0.23 v -0.26 c 0,-0.25 0,-0.51 0,-0.79 0,-0.28 0,-0.84 0,-1.26 v -1.38 a 11.11,11.11 0 0 0 0,-1.29 V 143 a 87.33,87.33 0 0 1 -0.17,-9.29 1,1 0 0 1 0.38,-0.82 1.28,1.28 0 0 1 0.8,-0.28 1.12,1.12 0 0 1 0.81,0.33 1.1,1.1 0 0 1 0.33,0.79 c -0.16,0.27 -0.17,0.46 -0.17,0.68 z M 19,139 a 12.18,12.18 0 0 1 1.26,-3.51 5.86,5.86 0 0 1 4.38,-3.32 3.66,3.66 0 0 1 2.25,0.38 2.86,2.86 0 0 1 1.33,1.57 4.81,4.81 0 0 1 -0.48,3.81 6.34,6.34 0 0 1 -3.16,3 6.1,6.1 0 0 1 -3.52,0.42 7.26,7.26 0 0 0 1,4.28 2.89,2.89 0 0 0 3.07,1.23 4.59,4.59 0 0 0 2.26,-1 8.12,8.12 0 0 0 1.88,-2.13 v 0 0 a 1.24,1.24 0 0 1 1.52,-0.37 1.11,1.11 0 0 1 0.57,0.65 1.13,1.13 0 0 1 -0.06,0.83 v 0 0 a 11.92,11.92 0 0 1 -2.46,2.7 6.72,6.72 0 0 1 -3.34,1.49 5.25,5.25 0 0 1 -5.39,-2.22 9.12,9.12 0 0 1 -1.34,-5.6 8.44,8.44 0 0 1 0,-0.87 1,1 0 0 1 0,-1.1 A 1,1 0 0 1 19,139 Z m -1.76,-10.3 a 1,1 0 0 1 0.38,0.77 1.06,1.06 0 0 1 -0.37,0.8 1.16,1.16 0 0 1 -1.58,0 1,1 0 0 1 0,-1.59 1.15,1.15 0 0 1 0.79,-0.31 1.09,1.09 0 0 1 0.78,0.33 z m 0.8,5 a 84.49,84.49 0 0 0 0.51,14.49 1,1 0 0 1 -0.24,0.83 1.2,1.2 0 0 1 -0.77,0.41 1.23,1.23 0 0 1 -0.83,-0.2 1.1,1.1 0 0 1 -0.48,-0.76 89.16,89.16 0 0 1 -0.52,-14.79 1,1 0 0 1 0.39,-0.82 1.21,1.21 0 0 1 0.79,-0.28 1.16,1.16 0 0 1 0.82,0.33 1.08,1.08 0 0 1 0.29,0.75 z m -6.19,-2.9 a 6,6 0 0 0 -0.48,-1.21 3.31,3.31 0 0 0 -0.92,-1.09 2.71,2.71 0 0 0 -1.65,-0.58 4.57,4.57 0 0 0 -2.05,0.42 4.74,4.74 0 0 0 -1.75,1.11 2.45,2.45 0 0 0 -0.69,1.41 4.53,4.53 0 0 0 1.33,3 33.88,33.88 0 0 0 3.73,3.45 29.67,29.67 0 0 1 3.95,3.81 6.53,6.53 0 0 1 1.68,4.88 3.74,3.74 0 0 1 -2.61,3.33 6.82,6.82 0 0 1 -4.28,-0.22 11.71,11.71 0 0 1 -4,-2.36 7.29,7.29 0 0 1 -2.36,-3.58 v 0 a 1.16,1.16 0 0 1 0.19,-0.81 1.17,1.17 0 0 1 0.73,-0.48 1.26,1.26 0 0 1 0.83,0.14 1.11,1.11 0 0 1 0.55,0.65 v 0 a 5.11,5.11 0 0 0 1.66,2.52 9.25,9.25 0 0 0 3.18,1.81 4.47,4.47 0 0 0 2.7,0.22 1.66,1.66 0 0 0 1.09,-1.52 4.42,4.42 0 0 0 -1.17,-3.23 27.57,27.57 0 0 0 -3.66,-3.47 36,36 0 0 1 -4,-3.7 6.42,6.42 0 0 1 -1.85,-4.6 4.39,4.39 0 0 1 1.23,-2.65 7.47,7.47 0 0 1 2.54,-1.77 6.66,6.66 0 0 1 3.11,-0.58 5.19,5.19 0 0 1 3,1 5.12,5.12 0 0 1 0.59,0.55 c 0.15,0.16 0.3,0.33 0.44,0.51 a 4.28,4.28 0 0 1 0.4,0.61 l 0.27,0.52 a 4,4 0 0 1 0.26,0.68 l 0.15,0.53 c 0.06,0.21 0.11,0.43 0.15,0.64 0.04,0.21 0.08,0.39 0.11,0.58 0.03,0.19 0,0.39 0.07,0.59 a 3.18,3.18 0 0 0 0.06,0.43 v 0.09 a 1,1 0 0 1 -0.24,0.83 1.09,1.09 0 0 1 -0.76,0.41 1.19,1.19 0 0 1 -0.84,-0.2 1.05,1.05 0 0 1 -0.47,-0.76 v -0.07 a 1.5,1.5 0 0 0 0,-0.22 c -0.07,-0.53 -0.14,-1.1 -0.22,-1.66 z m 236.28,4.48 a 3.62,3.62 0 0 1 1.18,-1.48 6.56,6.56 0 0 1 3.51,-1.33 7.18,7.18 0 0 1 3.79,0.66 4.14,4.14 0 0 1 2.33,2.82 v 0 a 1.16,1.16 0 0 1 -0.19,0.81 1.17,1.17 0 0 1 -0.73,0.48 1.26,1.26 0 0 1 -0.83,-0.14 1.11,1.11 0 0 1 -0.55,-0.65 v 0 a 2,2 0 0 0 -1.17,-1.39 4.64,4.64 0 0 0 -2.43,-0.4 4.21,4.21 0 0 0 -2.19,0.78 1.49,1.49 0 0 0 -0.64,1.39 3.46,3.46 0 0 0 1.1,1.8 c 0.86,0.73 1.85,1.42 2.76,2.08 0.5,0.37 1,0.74 1.51,1.14 a 10.63,10.63 0 0 1 1.25,1.26 4.32,4.32 0 0 1 1,1.73 3.9,3.9 0 0 1 0.06,1.92 3,3 0 0 1 -1.8,2.19 4.71,4.71 0 0 1 -2.65,0.26 7.23,7.23 0 0 1 -2.58,-1 4.61,4.61 0 0 1 -1.79,-1.9 v 0 0 a 1.08,1.08 0 0 1 0,-0.79 1,1 0 0 1 0.66,-0.62 1.43,1.43 0 0 1 0.82,0 1.09,1.09 0 0 1 0.67,0.59 2.42,2.42 0 0 0 1,1 4.63,4.63 0 0 0 1.65,0.61 2.5,2.5 0 0 0 1.3,-0.09 0.72,0.72 0 0 0 0.47,-0.59 1.86,1.86 0 0 0 -0.42,-1.69 14.2,14.2 0 0 0 -2.51,-2.2 30.73,30.73 0 0 1 -2.93,-2.25 6.94,6.94 0 0 1 -1.32,-1.63 35.08,35.08 0 0 1 -0.12,3.69 12.43,12.43 0 0 1 -1.2,4.52 4.81,4.81 0 0 1 -6.82,2.09 c -2.34,-1.57 -2.71,-5.19 -2.73,-7.75 a 43.85,43.85 0 0 1 0.21,-4.44 c 0.09,-1 0.27,-2.35 0.27,-3.37 a 1,1 0 0 1 0.39,-0.79 1.21,1.21 0 0 1 0.79,-0.28 1.14,1.14 0 0 1 0.82,0.33 1.08,1.08 0 0 1 0.33,0.8 c 0,1.08 -0.18,2.42 -0.28,3.5 -0.12,1.39 -0.22,2.81 -0.2,4.21 0,1.68 0.19,5 1.76,6 a 2.49,2.49 0 0 0 1.66,0.17 2.4,2.4 0 0 0 1.7,-1.49 10.9,10.9 0 0 0 1,-3.75 28.6,28.6 0 0 0 0.07,-4.44 18.79,18.79 0 0 0 -0.47,-3.34 v -0.05 a 1.16,1.16 0 0 1 0.19,-0.81 1.12,1.12 0 0 1 0.73,-0.47 1.2,1.2 0 0 1 0.83,0.13 1.17,1.17 0 0 1 0.55,0.65 v 0 c 0.06,0.45 0.12,0.96 0.19,1.48 z m 37.95,4.31 a 0.88,0.88 0 0 1 0.09,-0.2 1,1 0 0 1 0.27,-0.32 11.87,11.87 0 0 1 1.25,-3.51 5.87,5.87 0 0 1 4.39,-3.32 3.63,3.63 0 0 1 2.24,0.38 2.92,2.92 0 0 1 1.34,1.57 4.9,4.9 0 0 1 -0.48,3.81 6.4,6.4 0 0 1 -3.17,3 6.07,6.07 0 0 1 -3.51,0.42 7.18,7.18 0 0 0 1,4.28 2.89,2.89 0 0 0 3.07,1.23 4.67,4.67 0 0 0 2.26,-1 8.5,8.5 0 0 0 1.88,-2.13 v 0 a 1.21,1.21 0 0 1 0.68,-0.45 1.16,1.16 0 0 1 0.84,0.08 1.12,1.12 0 0 1 0.58,0.65 1.14,1.14 0 0 1 -0.07,0.83 v 0 0 a 12.16,12.16 0 0 1 -2.46,2.7 6.75,6.75 0 0 1 -3.35,1.49 5.26,5.26 0 0 1 -5.39,-2.22 9.18,9.18 0 0 1 -1.34,-5.6 8.46,8.46 0 0 1 0.05,-0.87 0.86,0.86 0 0 1 -0.1,-0.16 c 0.06,1.47 0,3 0,4.42 0,0.59 -0.08,1.18 -0.12,1.77 -0.04,0.59 -0.09,1.05 -0.09,1.56 a 1,1 0 0 1 -0.39,0.79 1.18,1.18 0 0 1 -0.79,0.28 1.12,1.12 0 0 1 -0.81,-0.33 1.08,1.08 0 0 1 -0.33,-0.8 c 0,-0.53 0.05,-1.1 0.08,-1.63 0.03,-0.53 0.09,-1.17 0.12,-1.76 a 41.7,41.7 0 0 0 0,-4.33 14.58,14.58 0 0 0 -0.6,-3.83 2.62,2.62 0 0 0 -1.22,-1.69 h -0.38 v 0 a 3.76,3.76 0 0 0 -0.66,0.1 c -2,0.66 -2.79,2.7 -3.12,4.62 a 17.81,17.81 0 0 0 -0.2,1.79 v 0.7 c 0,1 -0.06,2.07 -0.1,3.08 v 0.09 c 0,0.37 0,0.74 0,1.11 v 0.29 0.1 a 0.73,0.73 0 0 1 -0.14,0.37 1.42,1.42 0 0 1 -0.25,0.3 v 0 0 a 1.18,1.18 0 0 1 -1.51,-0.06 1.39,1.39 0 0 1 -0.29,-0.35 l -0.07,-0.13 v -0.12 a 0.64,0.64 0 0 1 0,-0.2 v 0 a 0.76,0.76 0 0 1 0,-0.21 c 0,-0.38 0,-0.76 0,-1.13 0,-1.26 0,-2.6 0.1,-3.86 a 24,24 0 0 0 -0.37,-3.59 7.4,7.4 0 0 0 -0.66,-2.11 c -0.06,-0.1 -0.28,-0.46 -0.39,-0.5 -0.66,0 -1.1,0.65 -1.35,1.17 a 13.31,13.31 0 0 0 -1.06,3.93 42.84,42.84 0 0 0 -0.27,6.8 v 0.23 a 1.72,1.72 0 0 1 0,0.39 v 0.55 0.08 a 1.1,1.1 0 0 1 -1,0.78 1.11,1.11 0 0 1 -1.25,-0.66 v 0 l -0.06,-0.23 v -0.26 c 0,-0.25 0,-0.51 0,-0.79 0,-0.28 0,-0.84 0,-1.26 v -1.32 a 11.11,11.11 0 0 0 0,-1.29 V 143 a 90.07,90.07 0 0 1 -0.18,-9.29 1.06,1.06 0 0 1 0.39,-0.82 1.27,1.27 0 0 1 0.79,-0.28 1.14,1.14 0 0 1 0.82,0.33 1.1,1.1 0 0 1 0.33,0.79 c 0,0.22 0,0.44 0,0.66 a 3.48,3.48 0 0 1 3.06,-1.56 2.87,2.87 0 0 1 2.35,1.69 8.8,8.8 0 0 1 0.42,1 6,6 0 0 1 3.43,-2.76 5.87,5.87 0 0 1 1.17,-0.21 3.45,3.45 0 0 1 1.5,0.1 4.72,4.72 0 0 1 2.6,3.06 14.77,14.77 0 0 1 0.43,3.84 z m 120,0 a 0.88,0.88 0 0 1 0.09,-0.2 0.9,0.9 0 0 1 0.26,-0.32 12.18,12.18 0 0 1 1.26,-3.51 5.84,5.84 0 0 1 4.38,-3.32 3.62,3.62 0 0 1 2.24,0.38 2.84,2.84 0 0 1 1.34,1.57 4.81,4.81 0 0 1 -0.48,3.81 6.32,6.32 0 0 1 -3.17,3 6.05,6.05 0 0 1 -3.51,0.42 7.26,7.26 0 0 0 1,4.28 2.89,2.89 0 0 0 3.07,1.23 4.63,4.63 0 0 0 2.26,-1 8.3,8.3 0 0 0 1.88,-2.13 v 0 0 a 1.24,1.24 0 0 1 1.52,-0.37 1.11,1.11 0 0 1 0.57,0.65 1.13,1.13 0 0 1 -0.06,0.83 v 0 0 a 11.92,11.92 0 0 1 -2.46,2.7 6.72,6.72 0 0 1 -3.34,1.49 5.27,5.27 0 0 1 -5.4,-2.22 9.11,9.11 0 0 1 -1.33,-5.6 8.44,8.44 0 0 1 0,-0.87 0.86,0.86 0 0 1 -0.1,-0.16 43.45,43.45 0 0 1 0,4.42 q 0,0.89 -0.12,1.77 c 0,0.51 -0.08,1.05 -0.08,1.56 a 1,1 0 0 1 -0.39,0.79 1.21,1.21 0 0 1 -0.79,0.28 1.14,1.14 0 0 1 -0.82,-0.33 1.08,1.08 0 0 1 -0.33,-0.8 c 0,-0.53 0.05,-1.1 0.09,-1.63 0.04,-0.53 0.09,-1.17 0.12,-1.76 a 41.7,41.7 0 0 0 0,-4.33 14.57,14.57 0 0 0 -0.59,-3.83 2.67,2.67 0 0 0 -1.23,-1.69 h -0.37 v 0 a 3.5,3.5 0 0 0 -0.66,0.1 c -2,0.66 -2.79,2.7 -3.13,4.62 a 17.81,17.81 0 0 0 -0.2,1.79 v 0.7 c 0,1 -0.05,2.07 -0.1,3.08 v 0.09 q 0,0.56 0,1.11 v 0.29 0.1 a 0.72,0.72 0 0 1 -0.13,0.37 1.48,1.48 0 0 1 -0.26,0.3 v 0 0 a 1.14,1.14 0 0 1 -0.81,0.24 1.11,1.11 0 0 1 -0.71,-0.3 1.35,1.35 0 0 1 -0.28,-0.35 l -0.07,-0.13 v -0.12 a 0.65,0.65 0 0 1 0,-0.2 v 0 a 0.78,0.78 0 0 1 0,-0.21 c 0,-0.38 0,-0.76 0,-1.13 0,-1.26 0,-2.6 0.11,-3.86 a 25.4,25.4 0 0 0 -0.37,-3.59 7.42,7.42 0 0 0 -0.67,-2.11 c -0.06,-0.1 -0.28,-0.46 -0.39,-0.5 -0.66,0 -1.09,0.65 -1.35,1.17 a 13,13 0 0 0 -1.05,3.93 42.84,42.84 0 0 0 -0.27,6.8 v 0.23 a 2.56,2.56 0 0 1 0,0.39 v 0.55 0.08 a 1.22,1.22 0 0 1 -2.23,0.12 v 0 l -0.07,-0.23 v -0.26 c 0,-0.25 0,-0.51 0,-0.79 0,-0.28 0,-0.84 0,-1.26 v -1.32 c 0,-0.37 0,-0.92 0,-1.29 V 143 a 87.33,87.33 0 0 1 -0.17,-9.29 1,1 0 0 1 0.39,-0.82 1.25,1.25 0 0 1 0.79,-0.28 1.12,1.12 0 0 1 0.81,0.33 1.1,1.1 0 0 1 0.33,0.79 c 0,0.22 0,0.44 0,0.66 a 3.5,3.5 0 0 1 3.06,-1.56 2.85,2.85 0 0 1 2.35,1.69 7.29,7.29 0 0 1 0.42,1 6,6 0 0 1 3.43,-2.76 6,6 0 0 1 1.18,-0.21 3.46,3.46 0 0 1 1.5,0.1 4.7,4.7 0 0 1 2.59,3.06 14.7,14.7 0 0 1 0.43,3.84 z m 46.32,-2.34 V 137 a 3.45,3.45 0 0 1 1.42,-3.2 6.56,6.56 0 0 1 3.51,-1.33 7.18,7.18 0 0 1 3.79,0.66 4.14,4.14 0 0 1 2.33,2.82 v 0 a 1.11,1.11 0 0 1 -0.19,0.81 1.17,1.17 0 0 1 -0.73,0.48 1.26,1.26 0 0 1 -0.83,-0.14 1.14,1.14 0 0 1 -0.55,-0.65 v 0 a 2,2 0 0 0 -1.17,-1.39 4.64,4.64 0 0 0 -2.43,-0.4 4.21,4.21 0 0 0 -2.19,0.78 1.49,1.49 0 0 0 -0.64,1.39 3.42,3.42 0 0 0 1.11,1.8 c 0.85,0.73 1.84,1.42 2.75,2.08 0.5,0.37 1,0.74 1.51,1.14 a 10.63,10.63 0 0 1 1.25,1.26 4.32,4.32 0 0 1 1,1.73 3.9,3.9 0 0 1 0.06,1.92 3,3 0 0 1 -1.8,2.19 4.71,4.71 0 0 1 -2.65,0.26 7.23,7.23 0 0 1 -2.58,-1 4.61,4.61 0 0 1 -1.79,-1.9 v 0 0 a 1.08,1.08 0 0 1 0,-0.79 1,1 0 0 1 0.66,-0.62 1.43,1.43 0 0 1 0.82,0 1.12,1.12 0 0 1 0.67,0.59 2.42,2.42 0 0 0 0.95,1 4.63,4.63 0 0 0 1.65,0.61 2.49,2.49 0 0 0 1.3,-0.09 0.72,0.72 0 0 0 0.47,-0.59 1.86,1.86 0 0 0 -0.42,-1.69 14.2,14.2 0 0 0 -2.51,-2.2 30.73,30.73 0 0 1 -2.93,-2.25 6.46,6.46 0 0 1 -1.48,-2 10,10 0 0 1 0.22,3 9.7,9.7 0 0 1 -2,5.22 6.17,6.17 0 0 1 -4.59,2.56 4.89,4.89 0 0 1 -4.74,-2.23 8.53,8.53 0 0 1 -1.16,-5.09 12.85,12.85 0 0 1 1.47,-5.5 7.53,7.53 0 0 1 3.65,-3.71 1.17,1.17 0 0 1 1.2,0.12 7.8,7.8 0 0 1 5.6,4.6 z"
         id="path24" />
      <path
         class="cls-1"
         d="m 429.06,20.56 a 9,9 0 0 0 5.69,0 h -0.81 l -0.28,-0.33 v 0.33 z m -5.25,-5.21 h 1.48 V 11 l -1.33,-0.1 a 7,7 0 0 0 -0.43,2.45 7.14,7.14 0 0 0 0.28,2 z m 7.29,-9.61 h 0.66 a 12.9,12.9 0 0 1 1.76,0.12 8.72,8.72 0 0 0 -1.62,-0.15 c -0.26,-0.01 -0.53,0.01 -0.8,0.03 z m 6.15,1.73 a 4.33,4.33 0 0 1 1.24,3.2 4.64,4.64 0 0 1 -1.39,3.42 l 0.53,0.59 c 0.17,0.18 0.37,0.39 0.57,0.58 h 0.29 l 1.52,0.06 a 7,7 0 0 0 0.27,-2 7.33,7.33 0 0 0 -3.03,-5.85 z M 431.9,0.11 c 7.4,0 14,5.64 14,13.25 0,7.61 -6.57,13.26 -14,13.26 -7.43,0 -14,-5.64 -14,-13.26 0,-7.62 6.61,-13.25 14,-13.25 z"
         id="path26" />
      <path
         class="cls-7"
         d="m 429.06,20.56 a 9,9 0 0 0 5.69,0 h -0.81 l -0.28,-0.33 v 0.33 z m -5.25,-5.21 h 1.48 V 11 l -1.33,-0.1 a 7,7 0 0 0 -0.43,2.45 7.14,7.14 0 0 0 0.28,2 z m 7.29,-9.61 h 0.66 a 12.9,12.9 0 0 1 1.76,0.12 8.72,8.72 0 0 0 -1.62,-0.15 c -0.26,-0.01 -0.53,0.01 -0.8,0.03 z m 6.15,1.73 a 4.33,4.33 0 0 1 1.24,3.2 4.64,4.64 0 0 1 -1.39,3.42 l 0.53,0.59 c 0.17,0.18 0.37,0.39 0.57,0.58 h 0.29 l 1.52,0.06 a 7,7 0 0 0 0.27,-2 7.33,7.33 0 0 0 -3.03,-5.85 z M 431.9,0.11 c 7.4,0 14,5.64 14,13.25 0,7.61 -6.57,13.26 -14,13.26 -7.43,0 -14,-5.64 -14,-13.26 0,-7.62 6.61,-13.25 14,-13.25 z"
         id="path28" />
      <path
         class="cls-3"
         d="m 429.74,13.31 h 0.68 q 3.61,0 3.62,-2.48 a 2,2 0 0 0 -0.68,-1.68 4.13,4.13 0 0 0 -2.31,-0.49 h -1.31 z m 0,0.45 v 2.63 c 0,0.6 0.06,1 0.19,1.08 a 2.23,2.23 0 0 0 1.14,0.23 h 0.18 v 0.41 H 426 V 17.7 h 0.17 a 2.92,2.92 0 0 0 1.34,-0.23 c 0.14,-0.11 0.21,-0.48 0.21,-1.08 V 9.94 q 0,-0.9 -0.21,-1.08 A 3.13,3.13 0 0 0 426.17,8.64 H 426 V 8.21 h 3.32 1.69 0.74 q 4.29,0 4.29,2.5 c 0,1.39 -0.94,2.31 -2.84,2.78 l 2.68,2.93 a 9.62,9.62 0 0 0 1.16,1.1 1.3,1.3 0 0 0 0.72,0.19 h 0.62 0.19 v 0.41 h -3.51 l -3.75,-4.36 z"
         id="path30" />
      <path
         class="cls-8"
         d="m 429.74,13.31 h 0.68 q 3.61,0 3.62,-2.48 a 2,2 0 0 0 -0.68,-1.68 4.13,4.13 0 0 0 -2.31,-0.49 h -1.31 z m 0,0.45 v 2.63 c 0,0.6 0.06,1 0.19,1.08 a 2.23,2.23 0 0 0 1.14,0.23 h 0.18 v 0.41 H 426 V 17.7 h 0.17 a 2.92,2.92 0 0 0 1.34,-0.23 c 0.14,-0.11 0.21,-0.48 0.21,-1.08 V 9.94 q 0,-0.9 -0.21,-1.08 A 3.13,3.13 0 0 0 426.17,8.64 H 426 V 8.21 h 3.32 1.69 0.74 q 4.29,0 4.29,2.5 c 0,1.39 -0.94,2.31 -2.84,2.78 l 2.68,2.93 a 9.62,9.62 0 0 0 1.16,1.1 1.3,1.3 0 0 0 0.72,0.19 h 0.62 0.19 v 0.41 h -3.51 l -3.75,-4.36 z"
         id="path32" />
      <path
         class="cls-5"
         d="m 431.9,3.26 c 6,0 10.82,4.53 10.82,10.1 0,5.57 -4.84,10.1 -10.82,10.1 -5.98,0 -10.81,-4.52 -10.81,-10.1 0,-5.58 4.84,-10.1 10.81,-10.1 z m 0,-0.71 c 6.06,0 11.53,4.56 11.53,10.81 0,6.25 -5.43,10.82 -11.53,10.82 -6.1,0 -11.53,-4.56 -11.53,-10.82 0,-6.26 5.48,-10.81 11.53,-10.81 z"
         id="path34" />
      <path
         class="cls-4"
         d="m 431.9,3.26 c 6,0 10.82,4.53 10.82,10.1 0,5.57 -4.84,10.1 -10.82,10.1 -5.98,0 -10.81,-4.52 -10.81,-10.1 0,-5.58 4.84,-10.1 10.81,-10.1 z m 0,-0.71 c 6.06,0 11.53,4.56 11.53,10.81 0,6.25 -5.43,10.82 -11.53,10.82 -6.1,0 -11.53,-4.56 -11.53,-10.82 0,-6.26 5.48,-10.81 11.53,-10.81 z"
         id="path36" />
    </g>
  </g>
</svg>
